<svg xmlns="http://www.w3.org/2000/svg" width="244.16" height="244.16"><defs><clipPath id="a"><path data-name="Rectangle 503" fill="none" d="M0 0h244.16v244.16H0z"/></clipPath></defs><g data-name="Group 13523" clip-path="url(#a)"><path data-name="Path 630" d="M119.351 122.069a120.493 120.493 0 0 1 60.864-104.751 120.54 120.54 0 1 0 0 209.5 120.493 120.493 0 0 1-60.864-104.749" fill="#edf5ff"/><path data-name="Path 631" d="M243.457 130.152c-.29 2.106-.518 4.223-.882 6.317a11.811 11.811 0 0 1-23.454-2.215c.076-3.8.622-7.6.541-11.388-.841-39.029-17.88-68.889-52.364-87.219C109.857 5.112 39.85 38.281 25.945 101.856c-11.345 51.855 22.413 104.528 74.22 115.769 26.151 5.675 50.629 1.3 73.511-12.425 8.093-4.856 17.341-.9 18.659 8.127a11.1 11.1 0 0 1-5.411 11.576 119.349 119.349 0 0 1-43.747 16.982c-4.43.778-8.908 1.282-13.364 1.912H113.17a9.083 9.083 0 0 0-1.57-.407 108.408 108.408 0 0 1-30.521-6.629q-65.338-25.078-79.188-93.745c-.88-4.4-1.272-8.89-1.891-13.339V113.51a14.085 14.085 0 0 0 .4-1.57c.672-4.7 1.119-9.436 2.011-14.09 9.1-47.474 48.192-86.3 95.774-95.14 5.275-.98 10.619-1.59 15.931-2.371h16.167c4.212.61 8.441 1.12 12.632 1.845 50.148 8.667 90.161 48.687 98.654 98.675.74 4.356 1.261 8.749 1.883 13.125Z" fill="#0074ff"/><path data-name="Path 632" d="M103.97 138.093c6.587-6.7 12.936-13.228 19.359-19.681q18.608-18.694 37.295-37.309c6.883-6.841 17.772-4.2 20.234 4.882a11.535 11.535 0 0 1-3.242 11.765q-8.635 8.672-17.3 17.313-23.5 23.551-46.986 47.107c-6.3 6.314-12.948 6.292-19.264-.022-9.467-9.464-18.989-18.874-28.374-28.418a11.877 11.877 0 0 1 5.263-20.048c4.588-1.217 8.586.076 11.938 3.438q9.395 9.424 18.821 18.817c.607.607 1.242 1.186 2.259 2.156" fill="#0074ff"/></g></svg>