<svg xmlns="http://www.w3.org/2000/svg" width="178.545" height="47.664"><g data-name="Group 18447"><text data-name="Powered by" transform="translate(33 11)" fill="#fff" font-size="12" font-family="SF Pro"><tspan x="-32" y="0">Powered by</tspan></text><g data-name="Group 13911"><g data-name="Group 13098" fill="#fff"><g data-name="Group 1"><path data-name="Path 1" d="M62.899 23.952h-4.9l-6.153 17.462-6.12-17.462h-4.929l8.061 21.273a2.936 2.936 0 0 0 2.822 2.171h2.208l8.979-23.356Z"/><path data-name="Path 2" d="M76.31 32.198a7.318 7.318 0 0 0-5.172-1.816h-2.665a8.1 8.1 0 0 0-3.743.84 6.24 6.24 0 0 0-2.54 2.356 6.7 6.7 0 0 0-.908 3.5v4.3a6.015 6.015 0 0 0 .909 3.281 6.087 6.087 0 0 0 2.54 2.221 8.521 8.521 0 0 0 3.742.789h2.532a9.381 9.381 0 0 0 3.739-.7 5.836 5.836 0 0 0 2.541-2.02 5.169 5.169 0 0 0 .911-3v-.062H73.61v.062a1.539 1.539 0 0 1-.691 1.3 3.1 3.1 0 0 1-1.846.5h-2.6a2.591 2.591 0 0 1-1.857-.649 2.275 2.275 0 0 1-.681-1.721v-.738h12.327V37.04a6.327 6.327 0 0 0-1.952-4.842Zm-2.635 5.048h-7.806v-.038a3.163 3.163 0 0 1 .718-2.158 2.4 2.4 0 0 1 1.886-.812h2.7a2.33 2.33 0 0 1 1.82.762 2.963 2.963 0 0 1 .684 2.041Z"/><path data-name="Path 3" d="M87.584 31.208a4.877 4.877 0 0 0-1.726 1.439v-2h-4.321v16.75h4.654v-9.024a3.6 3.6 0 0 1 1.081-2.687 3.9 3.9 0 0 1 2.823-1.049h2.327v-4.055h-2.327a5.385 5.385 0 0 0-2.511.626Z"/><path data-name="Rectangle 1" d="M95.23 30.649h4.654v16.748H95.23z"/><path data-name="Path 4" d="M97.557 23.619a2.955 2.955 0 0 0-2.125.767 2.687 2.687 0 0 0-.8 2.027 2.687 2.687 0 0 0 .8 2.027 3.328 3.328 0 0 0 4.25 0 2.69 2.69 0 0 0 .8-2.027 2.69 2.69 0 0 0-.8-2.027 2.958 2.958 0 0 0-2.125-.767Z"/><path data-name="Path 5" d="M114.448 30.382h-2.065a4.791 4.791 0 0 0-2.109.539 5.69 5.69 0 0 0-1.727 1.29v-8.259h-4.654v23.445h4.654v-9.944a4.1 4.1 0 0 1 1.2-2.184 2.931 2.931 0 0 1 2.036-.829h2.066a1.739 1.739 0 0 1 1.37.612 2.4 2.4 0 0 1 .535 1.626v10.719h4.649v-10.89a6.135 6.135 0 0 0-1.633-4.44 5.778 5.778 0 0 0-4.322-1.685Z"/><path data-name="Path 6" d="M135.145 40.324a5.054 5.054 0 0 1-1.25 2.387 2.7 2.7 0 0 1-1.955.9h-1.933a1.718 1.718 0 0 1-1.4-.66 2.707 2.707 0 0 1-.536-1.744V30.649h-4.654v10.49a6.833 6.833 0 0 0 1.615 4.722 5.492 5.492 0 0 0 4.277 1.8h2.2a4.282 4.282 0 0 0 2.181-.675 6.308 6.308 0 0 0 1.789-1.6v2.007h4.319V30.649h-4.654Z"/><path data-name="Path 7" d="M157.107 31.206a7.059 7.059 0 0 0-3.445-.824h-2.332a4.746 4.746 0 0 0-1.907.439 5.215 5.215 0 0 0-1.562 1.039v-7.908h-4.655v23.445h4.322v-1.986a5.449 5.449 0 0 0 1.638 1.577 4.027 4.027 0 0 0 2.132.676h2.3a6.933 6.933 0 0 0 3.462-.858 6.032 6.032 0 0 0 2.355-2.406 7.373 7.373 0 0 0 .84-3.561V37.04a7.231 7.231 0 0 0-.823-3.494 5.793 5.793 0 0 0-2.325-2.34Zm-1.507 9.3a3.392 3.392 0 0 1-.7 2.227 2.274 2.274 0 0 1-1.835.844h-2.166a2.762 2.762 0 0 1-1.973-.8 3.741 3.741 0 0 1-1.064-2.1v-2.86a3.872 3.872 0 0 1 1.016-2.428 2.932 2.932 0 0 1 2.188-.914h2.066a2.25 2.25 0 0 1 1.786.795 3.143 3.143 0 0 1 .685 2.109Z"/><path data-name="Path 8" d="M177.359 39.214a5.974 5.974 0 0 0-3.1-1.431l-6.063-1.1a1.628 1.628 0 0 1-.787-.336.724.724 0 0 1-.262-.57v-.533c0-.622.708-.938 2.1-.938h2.532a1.8 1.8 0 0 1 1.242.417 1.435 1.435 0 0 1 .462 1.12v.062h4.588v-.062a5 5 0 0 0-1.737-3.961 6.756 6.756 0 0 0-4.555-1.5h-2.6a8.642 8.642 0 0 0-4.915 1.21 3.893 3.893 0 0 0-1.777 3.382v1.1a3.561 3.561 0 0 0 1.2 2.66 6.043 6.043 0 0 0 3.247 1.465l5.764 1a1.817 1.817 0 0 1 .87.369.758.758 0 0 1 .312.57v.566c0 .689-.652 1.038-1.938 1.038h-3a2.288 2.288 0 0 1-1.575-.534 1.8 1.8 0 0 1-.6-1.4v-.062h-4.588v.062a5.384 5.384 0 0 0 1.854 4.244 7.224 7.224 0 0 0 4.9 1.614h3a8.134 8.134 0 0 0 4.802-1.28 4.07 4.07 0 0 0 1.809-3.482v-1.2a3.347 3.347 0 0 0-1.185-2.49Z"/></g><g data-name="Group 2"><path data-name="Path 9" d="M27.473 25.647c-.018.05-.032.082-.032.082l-2.483 6.216v.018a1.528 1.528 0 0 1-.205.292l-1.3 1.148-.018.014a.624.624 0 0 1-.4.168h-5.19a.556.556 0 0 1-.419-.164.01.01 0 0 0-.009-.009 1.823 1.823 0 0 1-.05-.073.014.014 0 0 1 0-.009l-.738-1.075a.574.574 0 0 1-.073-.4c0-.018.009-.032.014-.045l.032-.082a.053.053 0 0 1 .009-.018l2.506-6.3a1.3 1.3 0 0 1 .26-.374s.009-.014.014-.014a.225.225 0 0 1 .059-.05l1.27-1.008a.09.09 0 0 1 .027-.018.47.47 0 0 1 .278-.082h5.245a.519.519 0 0 1 .392.2.331.331 0 0 1 .036.046.527.527 0 0 1 .027.045l.67.98a.687.687 0 0 1 .078.512Z"/><path data-name="Path 10" d="m19.281 45.975-.843 1.235a.245.245 0 0 1-.014.023l-.041.055a.554.554 0 0 1-.438.182h-7.66a.588.588 0 0 1-.342-.128.354.354 0 0 1-.068-.055l-1.745-1.38a1.364 1.364 0 0 1-.228-.324.266.266 0 0 0-.018-.036L.064 25.911a.053.053 0 0 1-.009-.018l-.032-.082a.527.527 0 0 1 .055-.428l.848-1.24a.015.015 0 0 1 0-.009.369.369 0 0 1 .05-.064s0-.009 0-.009a.555.555 0 0 1 .438-.182h7.874a.611.611 0 0 1 .406.178l1.454 1.29a.753.753 0 0 1 .082.073l.032.032a1.537 1.537 0 0 1 .246.374l.041.1a.307.307 0 0 1 .014.036l2.7 6.781 1.476 3.709 3.563 8.94a.02.02 0 0 1 0 .014.371.371 0 0 1 .037.082.589.589 0 0 1-.058.487Z"/></g></g></g></g></svg>