<svg id="Group_18538" data-name="Group 18538" xmlns="http://www.w3.org/2000/svg" xmlns:xlink="http://www.w3.org/1999/xlink" width="358" height="385.206" viewBox="0 0 358 385.206">
  <defs>
    <clipPath id="clip-path">
      <rect id="Rectangle_3842" data-name="Rectangle 3842" width="358" height="385.206" fill="none"/>
    </clipPath>
  </defs>
  <g id="Group_18527" data-name="Group 18527" clip-path="url(#clip-path)">
    <path id="Path_16552" data-name="Path 16552" d="M29.405,319.592c.95-18.742,6.448-36.582,10.734-54.67,1.948-8.219,3.34-16.577,4.828-24.9.714-3.983,2.778-6.111,6.227-5.836a5.506,5.506,0,0,1,5.106,7.133c-2.577,13.461-5.556,26.848-8.28,40.283-2.383,11.678-4.688,23.365-6.809,35.09a44.427,44.427,0,0,0-.225,8.835c.106,4.552-1.7,7.307-5.2,7.657s-6.026-2.311-6.343-7.047c-.143-2.172-.024-4.361-.02-6.543" transform="translate(-5.111 -40.748)" fill="#1277f0"/>
    <path id="Path_16553" data-name="Path 16553" d="M214.285,223a175.526,175.526,0,0,1-7.915-36.374,76.97,76.97,0,0,1,2.414-30.525,43.575,43.575,0,0,1,19.274-24.482c.926,5.3,1.839,10.132,2.611,14.98,1.767,11.146,4.232,22.255,5.015,33.473a47.45,47.45,0,0,1-17.942,40.715c-.681.586-1.4,1.13-2.135,1.648a7.879,7.879,0,0,1-1.321.555" transform="translate(-35.813 -22.904)" fill="#fff"/>
    <path id="Path_16554" data-name="Path 16554" d="M61.914,29.987c2.1-1.246,4.131-2.6,6.256-3.8A115.338,115.338,0,0,1,117.4,12.1c27.206-1.92,52.708,3.52,75.287,19.506A58.348,58.348,0,0,1,217.3,66.844c3.174,14.08-2.512,23.106-16.611,26.321-19.285,4.4-32.224,17.32-38.469,35.972s-4.1,37.6.247,56.341c5.373,23.208,14.322,45.243,22.3,67.6a143.149,143.149,0,0,1,6.842,26.371,32.82,32.82,0,0,1-15.947,34.924,57.427,57.427,0,0,1-9.875,5.191q-13.647,5.245-27.509,9.928c-12.966,4.421-25.3,9.581-35.5,19.354-8.532,8.167-17.489,6.88-26.7-1.335A142.951,142.951,0,0,0,56.4,332.829c-8.383-5.205-17.469-9.263-26-14.255a36.541,36.541,0,0,1-17.493-23.89,62.667,62.667,0,0,1-.03-27.934c3.752-17.573,7.888-35.064,12.178-52.51,7.843-31.935,10.862-64,4.334-96.61a97.6,97.6,0,0,1,.715-42.468A76.968,76.968,0,0,1,44.293,45.926,69.408,69.408,0,0,1,61.922,29.983m280.6,190.026c-11.781,18.965-38.654,38.974-54.148,47.558a5.206,5.206,0,0,0-1.484,8.606c2.318,2.85,5.389,3,8.788.316,2.52-1.991,25.228-18.034,27.652-20.141M31.734,43.566C16.406,65.992,13.042,91,17.638,116.983a201.433,201.433,0,0,1-.579,78.859c-3.892,17.93-8.621,35.679-12.714,53.573-1.794,7.863-2.913,15.864-4.34,23.806L0,288.654c.587,3.006,1.076,6.036,1.787,9.012a48.846,48.846,0,0,0,15.028,25.417,7.831,7.831,0,0,1,2.29,5.142q.249,24.435.025,48.876a15.942,15.942,0,0,0,.125,2.237l0,5.788,206.516.081,0-6.42a20.43,20.43,0,0,0,.1-2.281c-.1-16.975.078-33.95-.106-50.922a6.042,6.042,0,0,1,5.022-6.914q.161-.026.322-.042a133.14,133.14,0,0,0,34.47-14.109c6.852-4.083,7.076-4.665,5.214-12.363a3.033,3.033,0,0,1,.168-.936c1-.548,2.131-1.13,3.231-1.766,6.678-3.844,13.369-7.668,20.02-11.568a5.4,5.4,0,0,0,2.656-7.154c-.065-.143-.137-.283-.215-.42-1.6-3.518-5.014-4.3-8.776-2.108-6.971,4.056-13.924,8.135-21.2,12.388l-10.79-31.905c1.583-.721,2.741-1.238,3.9-1.773,28.318-12.576,43.66-24.828,60.18-40.522l-2.478-14.042c-14.7,23.928,4.055,5.7-19.824,19.824-7.355,4.351-37.481,21.429-44.925,25.44-4.062-5.684-5.479-6.017-11.389-3.524-5.084,2.147-10.171,4.3-15.34,6.217a138.069,138.069,0,0,1-30.644,7.986L182.143,212.16c.814-.639,1.2-.973,1.617-1.262,20.092-13.951,29.489-33.2,27.579-57.485-.813-10.333-3.216-20.545-4.9-30.807-.988-6.033-1.99-12.066-3-18.188l3.456-.894a28.865,28.865,0,0,0,22.576-25.733,47.713,47.713,0,0,0-5.509-26.8c-9.273-19.106-24.9-31.488-43.845-39.85A133.6,133.6,0,0,0,95.585,3.676,135.747,135.747,0,0,0,55.62,20.267c-10.339,6.087-23.886,23.3-23.886,23.3M179.771,199.555a7.847,7.847,0,0,1-1.322.554,175.467,175.467,0,0,1-7.884-36.39,76.955,76.955,0,0,1,2.426-30.524,43.573,43.573,0,0,1,19.283-24.475c.923,5.3,1.835,10.132,2.605,14.981,1.763,11.147,4.223,22.254,5,33.476a47.449,47.449,0,0,1-17.959,40.708c-.681.586-1.4,1.13-2.135,1.647M259.25,294.7a124.139,124.139,0,0,1-30.166,12.53c-1.232.361-2.493.633-3.708,1.044a14.936,14.936,0,0,0-11.061,14.976c-.1,16.791-.013,33.585-.084,50.387l-183.44-.072c-.087-13.393-.02-26.825-.015-40.715,1.3.494,2.312.818,3.268,1.251a129.436,129.436,0,0,1,36.079,23.284c11.4,10.716,26.374,12.059,37.827,1.918C122,346.865,138.8,341.386,155.868,335.7a136.277,136.277,0,0,0,22.678-9.483c20.125-11.084,28.42-29.993,24.023-53.153-.836-4.406-1.927-8.76-2.9-13.136,7.348-1.954,14.713-3.661,21.911-5.9,7.089-2.2,14.009-4.948,21.288-7.556l16.388,48.256" transform="translate(0 0)" fill="#1277f0"/>
    <path id="Path_16555" data-name="Path 16555" d="M350.322,237.492c28.917-18.742,30.821-24.794,29.753-55.2a12.685,12.685,0,0,0-3.667-8.482c-5.162-5.872-9.994-12.04-14.793-18.217a29.857,29.857,0,0,1-2.571-6.068,30.564,30.564,0,0,1,5.865,1.6,56.492,56.492,0,0,1,8.077,5.185,9.978,9.978,0,0,0,11.1,1.785,9.816,9.816,0,0,0,5.751-10.021c-.065-7.071-.011-14.146-.009-21.217l0-6.67,1.54-.339a173.264,173.264,0,0,1,6.254,16.685c4.844,18.158,7.421,35.329,5.558,53.873-7.681,44.148-3.3,47.907-41.3,75.991v11.564c30.561-20.65,40.284-23.87,48.28-72.7,1.218-7.452,1.984-14.979,2.961-22.468l.009-23.924c-1.018-6.69-1.735-13.445-3.117-20.057-2.79-13.364-7.623-25.765-18.129-35.244a5.608,5.608,0,0,1-1.177-3.746c-.1-7.83-.307-15.661.03-23.451a14.98,14.98,0,0,0-9.979-16.288l-54.017-.021c-5.874,2.51-9.842,6.485-9.847,13.294-.036,32-.1,64.036,0,96.052a12.756,12.756,0,0,0,12.2,13.293,12.6,12.6,0,0,0,1.3-.01c11.187.079,22.374.029,33.561.034l3.953,0a5.387,5.387,0,0,1,.425,1.117c.041,1.021.074,2.043.05,3.081-.436,18.725-2.759,28.488-22.872,40.111Z" transform="translate(-55.136 -10.452)" fill="#1277f0"/>
    <path id="Path_16556" data-name="Path 16556" d="M380.58,147.551c-3.316-1.747-6.268-3.5-9.38-4.9-7.237-3.259-15.794-2.012-19.576,5.788a3.175,3.175,0,0,1-2.346,1.393c-4.236.14-8.477.068-12.719.068h-4.477V75.245h48.5Z" transform="translate(-57.787 -13.094)" fill="#b2d5ff"/>
    <path id="Path_16557" data-name="Path 16557" d="M332.02,190.939V180.572c6.717,0,13.237-.04,19.746.058a3.094,3.094,0,0,1,2.1,1.263c1.964,2.843,3.785,5.788,5.883,9.049Z" transform="translate(-57.777 -31.421)" fill="#b2d5ff"/>
    <path id="Path_16558" data-name="Path 16558" d="M333.233,133.828h-2.478a2.478,2.478,0,0,1,0-4.956h2.478a2.478,2.478,0,1,1,0,4.956m-10.738,0h-2.478a2.478,2.478,0,1,1,0-4.956H322.5a2.478,2.478,0,1,1,0,4.956m-10.738,0H309.28a2.478,2.478,0,1,1,0-4.956h2.478a2.478,2.478,0,1,1,0,4.956m-10.738,0h-2.478a2.478,2.478,0,1,1,0-4.956h2.478a2.478,2.478,0,1,1,0,4.956m-10.738,0H287.8a2.478,2.478,0,1,1,0-4.956h2.478a2.478,2.478,0,0,1,0,4.956m-10.738,0h-2.478a2.478,2.478,0,0,1,0-4.956h2.478a2.478,2.478,0,0,1,0,4.956m-10.738,0h-2.478a2.478,2.478,0,0,1,0-4.956h2.478a2.478,2.478,0,1,1,0,4.956m-10.738,0h-2.478a2.478,2.478,0,1,1,0-4.956h2.478a2.478,2.478,0,1,1,0,4.956m-10.738,0h-2.478a2.478,2.478,0,0,1,0-4.956h2.478a2.478,2.478,0,0,1,0,4.956" transform="translate(-42.177 -22.426)" fill="#1277f0"/>
  </g>
</svg>
