<svg xmlns="http://www.w3.org/2000/svg" xmlns:xlink="http://www.w3.org/1999/xlink" width="401" height="393" viewBox="0 0 401 393">
  <defs>
    <clipPath id="clip-path">
      <rect id="Rectangle_171" data-name="Rectangle 171" width="175.425" height="175.425" fill="#f86c6c"/>
    </clipPath>
    <clipPath id="clip-path-2">
      <rect id="Rectangle_160" data-name="Rectangle 160" width="124.532" height="97.791" fill="none"/>
    </clipPath>
    <clipPath id="clip-path-3">
      <rect id="Rectangle_171-2" data-name="Rectangle 171" width="177.311" height="177.311" fill="#f86c6c"/>
    </clipPath>
    <clipPath id="clip-path-4">
      <rect id="Rectangle_165" data-name="Rectangle 165" width="131.904" height="93.325" fill="none"/>
    </clipPath>
    <clipPath id="clip-path-5">
      <rect id="Rectangle_171-3" data-name="Rectangle 171" width="181.786" height="181.786" fill="#f86c6c"/>
    </clipPath>
  </defs>
  <g id="Group_18504" data-name="Group 18504" transform="translate(-85 -203)">
    <g id="Group_13672" data-name="Group 13672" transform="translate(186.856 203)">
      <circle id="Ellipse_1727" data-name="Ellipse 1727" cx="98" cy="98" r="98" transform="translate(0.144)" fill="#fff"/>
      <g id="Group_13651" data-name="Group 13651" transform="translate(13.467 12.227)">
        <g id="Group_13191" data-name="Group 13191" transform="translate(36.967 36.425)">
          <g id="Group_13651-2" data-name="Group 13651" transform="translate(0 0)">
            <path id="Path_11500" data-name="Path 11500" d="M0,47.184a7.406,7.406,0,0,1,1.78-1.291Q27.756,37.18,53.766,28.572a3.986,3.986,0,0,1,2.3-.052c7.139,2.24,14.257,4.548,21.377,6.848,2.162.7,2.927,1.761,2.926,4.017a21.907,21.907,0,0,1-.071,3.161c-.565,3.845-4.393,5.869-8.106,4.3C67.1,44.7,62.007,42.559,56.969,40.3a4.841,4.841,0,0,0-4.1-.1C43.6,43.811,34.284,47.328,24.985,50.876c-.326.124-.646.262-1.261.512l8.465,2.126c2.045.513,4.094,1.008,6.134,1.54a7.546,7.546,0,0,1,5.311,4.756,1.7,1.7,0,0,0,.989.907q3.49.866,7.023,1.554a1.748,1.748,0,0,0,1.3-.336,7.413,7.413,0,0,1,6.557-1.9q14.062,2.785,28.118,5.6l5.148,1.023c.14-1.705.289-3.353.41-5q.921-12.517,1.831-25.034c.308-4.209.594-8.419.955-12.624a2.017,2.017,0,0,0-.68-1.8c-3.648-3.608-7.247-7.267-10.9-10.866a5.678,5.678,0,0,1-1.855-5.608c.19-.85.307-1.717.444-2.579A3.412,3.412,0,0,1,85.493.158a3.457,3.457,0,0,1,3.8,1.26l11.14,12.736c1.246,1.424,2.53,2.817,3.71,4.295a3.059,3.059,0,0,1,.661,1.757c.031,20.234.09,40.468-.008,60.7a22.22,22.22,0,0,1-19.343,21.541,4.653,4.653,0,0,0-.713.205H75.345c-.529-.1-1.057-.2-1.588-.289A27.158,27.158,0,0,1,50.685,77.028a1.846,1.846,0,0,0-.388-1.061c-.911-.989-1.876-1.93-2.847-2.861-.18-.173-.572-.379-.711-.3-1.365.781-2.943,1.033-3.482,3.1a18.917,18.917,0,0,1-18.436,14.08C13.177,90.061,3.655,82.979.78,72.08.457,70.859.257,69.606,0,68.367V47.184m8.416.154q0,.116-.006.232c2.749.683,5.49,1.4,8.254,2.022a3.847,3.847,0,0,0,2.083-.115q17.532-6.621,35.028-13.334a2.873,2.873,0,0,1,2.4.044c1.617.741,3.269,1.406,4.905,2.107,4.173,1.788,8.339,3.593,12.521,5.361a2.193,2.193,0,0,0,3.27-2.162,15.084,15.084,0,0,1,.016-1.635c.107-.816-.261-1.122-1-1.357q-9.867-3.125-19.709-6.33a3.627,3.627,0,0,0-2.418.031Q34.489,38.656,15.2,45.058c-2.264.754-4.525,1.52-6.787,2.281m92.873,21.017c.02-.286.043-.466.043-.645q0-23.257-.021-46.513a2.246,2.246,0,0,0-.551-1.325c-2.873-3.337-5.781-6.644-8.681-9.957-1.816-2.074-3.635-4.144-5.6-6.389a23.512,23.512,0,0,1-.45,2.433,2.834,2.834,0,0,0,1.019,3.084c3.511,3.437,6.9,7,10.469,10.376,1.562,1.475,2.49,2.951,1.911,5.137a9.115,9.115,0,0,0-.1,1.631q-1.376,18.394-2.755,36.788c-.107,1.44-.187,2.882-.283,4.379l5.009,1M68.834,92.029,93.285,81.546l-1.385-3.2L67.457,88.821l1.377,3.208m.038-7.006L88.08,76.289l-1.457-3.172L67.417,81.852l1.455,3.171m8.693,10.5,12.222-5.238-1.376-3.209L76.2,92.314l1.368,3.209m-33.449-31.3v5.933c.787-.389,1.471-.71,2.138-1.063a1.92,1.92,0,0,1,2.559.4c.529.576,1.064,1.147,1.6,1.72l.259-.152V65.678l-6.552-1.455" transform="translate(0 0)" fill="#1277f0"/>
            <path id="Path_11502" data-name="Path 11502" d="M38.431,161.483c2.262-.761,4.522-1.527,6.787-2.281q19.28-6.422,38.556-12.856a3.627,3.627,0,0,1,2.418-.031q9.843,3.2,19.709,6.33c.741.235,1.108.541,1,1.357a15.05,15.05,0,0,0-.015,1.636,2.193,2.193,0,0,1-3.27,2.161c-4.182-1.767-8.348-3.572-12.521-5.361-1.636-.7-3.288-1.365-4.905-2.107a2.873,2.873,0,0,0-2.4-.044q-17.5,6.7-35.028,13.334a3.845,3.845,0,0,1-2.083.116c-2.764-.618-5.5-1.339-8.254-2.022,0-.077,0-.155.006-.232" transform="translate(-30.016 -114.144)" fill="#fff"/>
            <path id="Path_11503" data-name="Path 11503" d="M407.863,80.943l-5.009-1c.1-1.5.176-2.939.283-4.379q1.373-18.394,2.754-36.788a9.149,9.149,0,0,1,.1-1.631c.579-2.185-.349-3.661-1.911-5.137-3.571-3.372-6.957-6.939-10.469-10.376a2.833,2.833,0,0,1-1.019-3.084,23.514,23.514,0,0,0,.449-2.433c1.97,2.245,3.789,4.315,5.6,6.389,2.9,3.313,5.808,6.62,8.681,9.957a2.248,2.248,0,0,1,.551,1.325q.042,23.256.021,46.513c0,.179-.023.359-.043.645" transform="translate(-306.574 -12.587)" fill="#fff"/>
            <path id="Path_11504" data-name="Path 11504" d="M309.617,371.662l-1.377-3.208,24.443-10.479,1.385,3.2-24.451,10.482" transform="translate(-240.782 -279.633)" fill="#b2d5ff"/>
            <path id="Path_11505" data-name="Path 11505" d="M309.512,346.006l-1.456-3.171,19.206-8.735,1.457,3.172-19.208,8.734" transform="translate(-240.639 -260.983)" fill="#b2d5ff"/>
            <path id="Path_11506" data-name="Path 11506" d="M349.546,406.331l-1.368-3.209,12.215-5.237,1.375,3.209-12.222,5.238" transform="translate(-271.98 -310.808)" fill="#b2d5ff"/>
            <path id="Path_11507" data-name="Path 11507" d="M201.586,293.461l6.552,1.455V300.3l-.259.152c-.532-.573-1.067-1.144-1.6-1.72a1.921,1.921,0,0,0-2.56-.4c-.667.354-1.351.674-2.138,1.063Z" transform="translate(-157.47 -229.238)" fill="#fff"/>
          </g>
        </g>
        <g id="Group_13199" data-name="Group 13199" transform="translate(0 0)">
          <g id="Group_13198" data-name="Group 13198">
            <g id="Group_13198-2" data-name="Group 13198" clip-path="url(#clip-path)">
              <path id="Path_11523" data-name="Path 11523" d="M155.947,32.6a87.713,87.713,0,1,0-13.124,123.344A87.545,87.545,0,0,0,155.947,32.6M10.035,79.448A78.118,78.118,0,0,1,144.066,33.61l-121.1,97.808A77.773,77.773,0,0,1,10.035,79.448m146.558,45.16A78.142,78.142,0,0,1,31.36,141.815l121.1-97.808a78.228,78.228,0,0,1,4.133,80.6" transform="translate(0 0)" fill="#f86c6c"/>
            </g>
          </g>
        </g>
      </g>
    </g>
    <g id="Group_13721" data-name="Group 13721" transform="translate(85 390.563)">
      <g id="Group_13673" data-name="Group 13673" transform="translate(0 4.97)">
        <circle id="Ellipse_1727-2" data-name="Ellipse 1727" cx="98" cy="98" r="98" transform="translate(0 0.468)" fill="#fff"/>
        <g id="Group_13650" data-name="Group 13650" transform="translate(10.56 7.309)">
          <ellipse id="Ellipse_1726" data-name="Ellipse 1726" cx="84.502" cy="85.382" rx="84.502" ry="85.382" transform="translate(5.281 2.34)" fill="#fff"/>
          <g id="Group_13641" data-name="Group 13641" transform="translate(0)">
            <g id="Group_13190" data-name="Group 13190" transform="translate(27.072 39.938)">
              <g id="Group_13189" data-name="Group 13189">
                <g id="Group_13188" data-name="Group 13188" clip-path="url(#clip-path-2)">
                  <path id="Path_11494" data-name="Path 11494" d="M0,27.94V24.3a8.811,8.811,0,0,0,.289-.99,10.023,10.023,0,0,1,7.294-8.469,19.545,19.545,0,0,1,4.6-.849c6.38-.377,12.439,1.249,18.428,3.181,2.333.752,4.632,1.613,7.05,2.461,0-.333.018-.531,0-.725-.294-2.7-.172-2.81,2.476-3.023,10.29-.827,20.577-1.7,30.869-2.493,1.076-.083,1.273-.511,1.374-1.469C73.01,5.947,76.54,2,82.375.6A25.568,25.568,0,0,1,92.625.441c11.514,1.894,20.167,7.888,25.861,18.088a49.8,49.8,0,0,1,2.439,4.706,49.278,49.278,0,0,1,3.417,23.476,69.213,69.213,0,0,1-11.665,34.341c-5.153,7.555-11.735,13.369-20.883,15.663-1.8.452-3.655.723-5.485,1.077H79.622a6.628,6.628,0,0,0-1.013-.258,59.453,59.453,0,0,1-15.54-3.87c-11.724-4.484-22.156-11.2-32.1-18.722-.568-.43-.715-1.417-1.057-2.145l.366-.214c-.235-.19-.463-.387-.7-.568A82.6,82.6,0,0,1,3.133,38.643C1.653,35.266,1.021,31.518,0,27.94M118.17,62.711a69.512,69.512,0,0,1-6.551,3.283,28.892,28.892,0,0,1-7.811,2.166,41.113,41.113,0,0,1-9.675-.637Q81.118,65.364,68.17,62.806c-4.561-.893-9.055-2.129-13.582-3.2-.912-.216-1.51-.7-1.309-1.69.216-1.067,1.006-1.3,1.979-1.085.641.145,1.274.322,1.913.476A331.542,331.542,0,0,0,99.1,64.881c2.9.313,5.874,1.039,8.691-.26,3.572-1.648,7.08-3.438,10.585-5.225a2.333,2.333,0,0,0,1.19-1.279c.835-3.934,1.563-7.891,2.388-12.18-3.635-.565-6.853-1.253-10.106-1.536C101.1,43.469,90.4,44.345,79.71,45.417c-7.352.738-14.7,1.528-22.049,2.291-1.02.106-2.023.1-2.088-1.289-.059-1.251.821-1.418,1.814-1.521,7.1-.739,14.18-1.68,21.292-2.219q13.09-.992,26.22-1.422a60.734,60.734,0,0,1,17.083,1.949c-.145-2.541-.178-4.916-.435-7.267A34.464,34.464,0,0,0,114.2,17.459a3.969,3.969,0,0,0-2.223-1.308A107.155,107.155,0,0,0,86.994,15.08C76.188,15.806,65.4,16.8,54.6,17.686c-2.565.211-5.127.463-7.753.7a7.075,7.075,0,0,0,0,.834c.636,4.812,1.364,9.613,1.9,14.436a66.789,66.789,0,0,1-.29,19.056c-1.442,8.2-4.884,15.584-9.082,22.674-.3.5-.581,1.01-.895,1.555,8.925,6.145,18.043,11.545,28.193,14.987,7.626,2.586,15.4,3.91,23.435,2.2a24.722,24.722,0,0,0,8.436-3.366c-.812.071-1.163.081-1.508.134a51.563,51.563,0,0,1-16.183-.25C68.794,88.68,57.85,83.813,47.428,77.614c-.883-.525-1.491-1.164-.863-2.2s1.491-.755,2.365-.256A122.224,122.224,0,0,0,76.208,86.393c6.4,1.82,12.894,3.1,19.611,2.607,4.763-.35,8.868-1.973,11.68-6.077,1.229-1.793,2.546-3.532,3.684-5.382a73.338,73.338,0,0,0,6.987-14.83M33.954,64.949c5.884-11.308,6.8-22.767,5.022-34.583a1.927,1.927,0,0,0-1.047-1.217C34.71,27.82,31.5,26.455,28.2,25.338c-4.359-1.478-8.789-2.778-13.493-2.29-3.532.366-5.343,2.61-4.828,6.149a24.121,24.121,0,0,0,1.258,4.972c2.793,7.431,7.271,13.855,12.4,19.808C26.8,57.75,30.4,61.225,33.954,64.949m-2.49,5.341c1.6-2.784,1.575-2.758-.343-4.456A89.529,89.529,0,0,1,9.887,38.586,23.33,23.33,0,0,1,7,27.846c.056-4.092,2.323-6.836,6.355-7.458a17.127,17.127,0,0,1,5.425-.111,90.522,90.522,0,0,1,10.318,2.4c3.132.929,6.152,2.232,9.6,3.513-.8-1.32.364-3-1.577-3.633-4.611-1.5-9.168-3.2-13.836-4.493a29.945,29.945,0,0,0-12.619-1.084c-4.915.754-7.772,3.6-7.648,8.563A30.955,30.955,0,0,0,4.734,34.86c3.536,10.1,9.609,18.674,16.938,26.355,3.018,3.163,6.415,5.967,9.792,9.076m9.153-51.414c.5,4.039,1.047,7.983,1.464,11.941a67.957,67.957,0,0,1-.355,19.788c-1.375,7.322-4.262,14.085-7.479,20.735-.3.618-.6,1.234-.906,1.864.55.41.949.717,1.357,1.011.439.316.886.62,1.3.91.165-.118.275-.159.324-.238,6.148-9.926,10.465-20.5,10-32.376-.276-7.1-1.287-14.177-2.061-21.254-.316-2.885-.428-2.873-3.648-2.382m34.688-5.914c1.1-.074,2.2-.1,3.279-.257.283-.041.617-.462.735-.78a6.967,6.967,0,0,1,5.425-4.6A23.942,23.942,0,0,1,104.086,11.7a3.187,3.187,0,0,0,1.287.677c1.8.24,3.607.381,5.7.588a10.568,10.568,0,0,0-1.577-1.621A78.992,78.992,0,0,0,100.744,6C95.522,3.556,90,2.149,84.128,3.022c-5.385.8-8.9,4.714-8.822,9.941m6.655-.791h17.43c-.3-.417-.357-.578-.464-.628-4.546-2.127-9.251-2.864-14.116-1.329a12.857,12.857,0,0,0-2.85,1.957" transform="translate(0 0)" fill="#1277f0"/>
                  <path id="Path_11495" data-name="Path 11495" d="M206.02,96.491a73.327,73.327,0,0,1-6.987,14.83c-1.137,1.849-2.455,3.588-3.684,5.382-2.812,4.1-6.917,5.727-11.68,6.077-6.717.494-13.212-.787-19.611-2.607a122.218,122.218,0,0,1-27.278-11.237c-.874-.5-1.732-.789-2.365.256s-.02,1.676.863,2.2c10.421,6.2,21.366,11.065,33.433,13.037a51.563,51.563,0,0,0,16.183.25c.345-.053.7-.063,1.508-.134a24.733,24.733,0,0,1-8.436,3.366c-8.034,1.707-15.809.382-23.435-2.2-10.15-3.442-19.268-8.842-28.193-14.987.313-.545.6-1.053.895-1.555,4.2-7.089,7.639-14.478,9.082-22.673a66.812,66.812,0,0,0,.29-19.056c-.536-4.823-1.264-9.625-1.9-14.437a7.058,7.058,0,0,1,0-.834c2.626-.239,5.188-.491,7.753-.7,10.8-.888,21.585-1.88,32.391-2.606a107.168,107.168,0,0,1,24.985,1.072,3.97,3.97,0,0,1,2.223,1.307A34.467,34.467,0,0,1,209.4,69.719c.257,2.351.29,4.726.435,7.267a60.736,60.736,0,0,0-17.083-1.949q-13.12.453-26.22,1.423c-7.113.539-14.194,1.48-21.292,2.219-.993.1-1.873.271-1.814,1.521.066,1.392,1.069,1.395,2.088,1.289,7.35-.762,14.7-1.552,22.049-2.29,10.689-1.073,21.394-1.949,32.138-1.016,3.254.282,6.471.971,10.106,1.536-.826,4.288-1.554,8.245-2.388,12.18a2.334,2.334,0,0,1-1.19,1.279c-3.505,1.787-7.013,3.577-10.585,5.225-2.817,1.3-5.792.573-8.691.261a331.556,331.556,0,0,1-41.93-7.575c-.639-.154-1.272-.331-1.913-.476-.973-.22-1.762.017-1.979,1.085-.2.991.4,1.475,1.309,1.69,4.527,1.071,9.02,2.307,13.582,3.2q12.948,2.536,25.964,4.717a41.127,41.127,0,0,0,9.675.637,28.881,28.881,0,0,0,7.811-2.167,69.375,69.375,0,0,0,6.551-3.283m-23.279,18.884c4.252,0,8.246-.412,11.853-2.6.806-.49,1.237-1.1.794-2a1.315,1.315,0,0,0-2.046-.562c-4.544,2.692-9.5,2.486-14.467,2.022a100.545,100.545,0,0,1-22.571-5.166c-5.555-1.861-11.016-4-16.517-6.021-1.395-.512-2.2-.264-2.429.784-.237,1.1.444,1.534,1.336,1.854,6.418,2.3,12.779,4.784,19.261,6.891a90.146,90.146,0,0,0,24.786,4.8" transform="translate(-87.85 -33.78)" fill="#b2d5ff"/>
                  <path id="Path_11496" data-name="Path 11496" d="M38.366,108.423c-3.378-3.109-6.774-5.912-9.793-9.076-7.328-7.681-13.4-16.257-16.938-26.355a30.947,30.947,0,0,1-1.707-9.319c-.123-4.967,2.734-7.81,7.648-8.563a29.944,29.944,0,0,1,12.618,1.084c4.668,1.294,9.225,2.99,13.836,4.493,1.942.633.777,2.313,1.577,3.633-3.452-1.28-6.472-2.584-9.6-3.513a90.5,90.5,0,0,0-10.318-2.4,17.126,17.126,0,0,0-5.425.111c-4.032.622-6.3,3.367-6.355,7.458a23.335,23.335,0,0,0,2.883,10.741,89.534,89.534,0,0,0,21.234,27.248c1.919,1.7,1.942,1.672.344,4.456" transform="translate(-6.901 -38.132)" fill="#fff"/>
                  <path id="Path_11497" data-name="Path 11497" d="M116.72,61.4c3.22-.491,3.332-.5,3.648,2.382.774,7.077,1.785,14.153,2.061,21.254.462,11.88-3.855,22.45-10,32.376-.049.079-.159.119-.324.238-.416-.29-.863-.594-1.3-.91-.408-.294-.807-.6-1.357-1.011.307-.631.608-1.247.906-1.864,3.217-6.651,6.1-13.413,7.479-20.735a67.958,67.958,0,0,0,.355-19.788c-.417-3.958-.964-7.9-1.464-11.941" transform="translate(-76.103 -42.521)" fill="#fff"/>
                  <path id="Path_11498" data-name="Path 11498" d="M247.191,19.266c-.082-5.226,3.437-9.141,8.822-9.941,5.871-.872,11.394.534,16.616,2.975a79,79,0,0,1,8.751,5.349,10.572,10.572,0,0,1,1.577,1.621c-2.092-.206-3.9-.347-5.7-.588a3.183,3.183,0,0,1-1.286-.677,23.943,23.943,0,0,0-19.341-4.372,6.967,6.967,0,0,0-5.425,4.6c-.118.318-.452.738-.735.78-1.081.159-2.183.182-3.278.257" transform="translate(-171.885 -6.304)" fill="#fff"/>
                  <path id="Path_11499" data-name="Path 11499" d="M207.788,234.548A90.15,90.15,0,0,1,183,229.75c-6.482-2.106-12.843-4.587-19.261-6.891-.891-.32-1.573-.753-1.336-1.854.226-1.048,1.034-1.3,2.429-.784,5.5,2.02,10.963,4.159,16.517,6.021a100.538,100.538,0,0,0,22.571,5.166c4.969.464,9.924.671,14.468-2.021a1.315,1.315,0,0,1,2.046.562c.442.895.012,1.506-.794,2-3.608,2.191-7.6,2.6-11.853,2.6" transform="translate(-112.896 -152.954)" fill="#1277f0"/>
                </g>
              </g>
            </g>
            <g id="Group_13200" data-name="Group 13200">
              <g id="Group_13198-3" data-name="Group 13198">
                <g id="Group_13198-4" data-name="Group 13198" clip-path="url(#clip-path-3)">
                  <path id="Path_11523-2" data-name="Path 11523" d="M157.624,32.953a88.656,88.656,0,1,0-13.265,124.67,88.486,88.486,0,0,0,13.265-124.67M10.143,80.3a78.958,78.958,0,0,1,135.472-46.33l-122.4,98.859A78.609,78.609,0,0,1,10.143,80.3m148.134,45.646A78.982,78.982,0,0,1,31.7,143.339L154.1,44.48a79.069,79.069,0,0,1,4.178,81.467" transform="translate(0 0)" fill="#f86c6c"/>
                </g>
              </g>
            </g>
          </g>
        </g>
      </g>
      <g id="Group_13674" data-name="Group 13674" transform="translate(196.258 0)">
        <circle id="Ellipse_1727-3" data-name="Ellipse 1727" cx="102.5" cy="102.5" r="102.5" transform="translate(-0.258 0.437)" fill="#fff"/>
        <g id="Group_13652" data-name="Group 13652" transform="translate(15.224 10.048)">
          <g id="Group_13194" data-name="Group 13194" transform="translate(26.679 46.236)">
            <g id="Group_13194-2" data-name="Group 13194" clip-path="url(#clip-path-4)">
              <path id="Path_11510" data-name="Path 11510" d="M131.9,71.129v4.38a7.362,7.362,0,0,0-.273.829,18.862,18.862,0,0,1-3.558,7.887,8.727,8.727,0,0,1-10.323,2.943,33.137,33.137,0,0,1-9.1-5.738c-2.932-2.436-5.738-5.024-8.657-7.6-.8.527-1.647,1.1-2.51,1.66-6.734,4.343-13.182,9.145-20.4,12.719a44.988,44.988,0,0,1-17.536,5.062,37.054,37.054,0,0,1-19.059-4.449c-8.244-4.183-15.247-10-21.658-16.594a2.922,2.922,0,0,0-1.845-.812c-3.689-.075-7.38-.027-11.071-.042-1.651-.006-2.759-.726-3.025-2.229C2.049,64.388,1.255,59.616.546,54.834.234,52.727.174,50.583,0,48.455v-7.73a8.241,8.241,0,0,0,.25-1.1A41.927,41.927,0,0,1,6.8,20.887C11.3,13.736,17.81,9.14,25.464,5.931A81.4,81.4,0,0,1,48.382.446a70.241,70.241,0,0,1,30.45,3.215C86.4,6.216,91.125,11.145,93.3,18.856c2.357,8.366,5.057,16.636,7.661,24.931a3.6,3.6,0,0,0,1.281,1.774c7.749,5.31,15.554,10.54,23.294,15.865a20.383,20.383,0,0,1,3.572,3.3c1.607,1.808,2.2,4.122,2.8,6.407M26.755,60.828a282.75,282.75,0,0,1,68.16-17,1.683,1.683,0,0,0-.022-.391c-2.558-8.35-5.081-16.711-7.7-25.042a12.833,12.833,0,0,0-7.306-8.207A53.6,53.6,0,0,0,61.617,5.8a82.778,82.778,0,0,0-17.947.978,24.754,24.754,0,0,0-10.6,3.974c-7.282,5.078-10.251,12.4-10.817,20.923a59,59,0,0,0,1.342,16.483c.916,4.213,2.08,8.372,3.163,12.671m-3.218,8.143c.323.371.528.641.767.876A82.754,82.754,0,0,0,41.123,82.929c10.106,5.8,20.4,6.358,31.03,1.481A117.289,117.289,0,0,0,91.488,72.7a76.139,76.139,0,0,1,15.375-8.788c2.6-1.071,5.269-1.989,8-3.01-.363-.269-.692-.53-1.038-.765-4.9-3.326-9.785-6.671-14.717-9.946a3.743,3.743,0,0,0-2.24-.631c-4.221.414-8.457.791-12.638,1.48A295.2,295.2,0,0,0,37.589,62.927a77.79,77.79,0,0,0-14.052,6.043" transform="translate(0 0)" fill="#1277f0"/>
              <path id="Path_11511" data-name="Path 11511" d="M90.538,77.143c-1.083-4.3-2.248-8.458-3.163-12.671a59.007,59.007,0,0,1-1.343-16.483c.567-8.524,3.536-15.845,10.818-20.923a24.754,24.754,0,0,1,10.6-3.974,82.782,82.782,0,0,1,17.948-.978,53.6,53.6,0,0,1,18.27,4.386,12.833,12.833,0,0,1,7.307,8.207c2.619,8.331,5.142,16.692,7.7,25.042a1.721,1.721,0,0,1,.022.391,282.747,282.747,0,0,0-68.16,17" transform="translate(-63.782 -16.315)" fill="#b2d5ff"/>
              <path id="Path_11512" data-name="Path 11512" d="M91.36,211.742a77.785,77.785,0,0,1,14.052-6.043,295.209,295.209,0,0,1,46.638-11.891c4.181-.689,8.417-1.066,12.638-1.48a3.743,3.743,0,0,1,2.24.632c4.932,3.275,9.819,6.619,14.717,9.946.346.235.674.5,1.038.765-2.727,1.021-5.393,1.939-8,3.01a76.139,76.139,0,0,0-15.375,8.789,117.287,117.287,0,0,1-19.335,11.712c-10.634,4.878-20.924,4.321-31.03-1.48a82.754,82.754,0,0,1-16.819-13.082c-.239-.236-.444-.505-.767-.876" transform="translate(-67.823 -142.771)" fill="#b2d5ff"/>
            </g>
          </g>
          <g id="Group_13198-5" data-name="Group 13198" transform="translate(0 0)">
            <g id="Group_13198-6" data-name="Group 13198" clip-path="url(#clip-path-5)">
              <path id="Path_11523-3" data-name="Path 11523" d="M161.6,33.785A90.894,90.894,0,1,0,148,161.6,90.719,90.719,0,0,0,161.6,33.785M10.4,82.328a80.95,80.95,0,0,1,138.891-47.5L23.8,136.183A80.593,80.593,0,0,1,10.4,82.328m151.872,46.8A80.975,80.975,0,0,1,32.5,146.957L157.988,45.6a81.064,81.064,0,0,1,4.283,83.523" transform="translate(0 0)" fill="#f86c6c"/>
            </g>
          </g>
        </g>
      </g>
    </g>
  </g>
</svg>
