<svg xmlns="http://www.w3.org/2000/svg" xmlns:xlink="http://www.w3.org/1999/xlink" width="407.889" height="428.456" viewBox="0 0 407.889 428.456">
  <defs>
    <clipPath id="clip-path">
      <ellipse id="Ellipse_1731" data-name="Ellipse 1731" cx="82.096" cy="82.096" rx="82.096" ry="82.096" fill="#fff" stroke="#1277f0" stroke-width="4"/>
    </clipPath>
    <clipPath id="clip-path-2">
      <rect id="Rectangle_385" data-name="Rectangle 385" width="134.625" height="181.538" fill="none"/>
    </clipPath>
    <clipPath id="clip-path-3">
      <ellipse id="Ellipse_1731-2" data-name="Ellipse 1731" cx="144.43" cy="142.366" rx="144.43" ry="142.366" fill="#fff" stroke="#1277f0" stroke-width="4"/>
    </clipPath>
    <clipPath id="clip-path-4">
      <rect id="Rectangle_385-2" data-name="Rectangle 385" width="191.395" height="258.09" fill="none"/>
    </clipPath>
  </defs>
  <g id="Group_18539" data-name="Group 18539" transform="translate(-754 -284.541)">
    <g id="Group_18529" data-name="Group 18529" transform="translate(685.688 74)">
      <g id="Group_13739" data-name="Group 13739" transform="translate(299.741 210.541)">
        <g id="Group_13731" data-name="Group 13731" transform="translate(0 0.672)">
          <ellipse id="Ellipse_1730" data-name="Ellipse 1730" cx="82.096" cy="82.096" rx="82.096" ry="82.096" transform="translate(0 0)" fill="#fff"/>
          <g id="Mask_Group_18" data-name="Mask Group 18" transform="translate(0 0)" clip-path="url(#clip-path)">
            <g id="Group_13730" data-name="Group 13730" transform="translate(15.707 54.8)">
              <g id="Group_13729" data-name="Group 13729" clip-path="url(#clip-path-2)">
                <path id="Path_11623" data-name="Path 11623" d="M132.5,181.538H0V161.033a9.9,9.9,0,0,0,.4-1.391,24.224,24.224,0,0,1,9.8-16.706,3.624,3.624,0,0,0,1.645-3.3q-.068-49.05-.016-98.1a45.047,45.047,0,0,1,.438-6.928A40.352,40.352,0,0,1,52.556.023q14.818-.054,29.636,0A40.537,40.537,0,0,1,95.817,2.3c16.518,5.908,27.046,20.963,27.056,38.738q.028,49.232-.024,98.465a3.79,3.79,0,0,0,1.682,3.474c5.619,4.229,9.142,9.869,9.7,16.916.453,5.7.21,11.453.388,17.178.06,1.938-.424,3.448-2.126,4.464M29.188,44.65c0,5.658-.052,11.012.03,16.364a25.247,25.247,0,0,0,.638,5.423c1.9,7.99,3.95,15.944,5.877,23.928a27.442,27.442,0,0,0,7.531,13.343c3.554,3.518,7.055,7.09,10.614,10.6,7.941,7.838,18.949,7.851,26.909.024,3.609-3.549,7.157-7.159,10.741-10.733A27.008,27.008,0,0,0,98.946,90.4c.388-1.659.86-3.3,1.256-4.954,1.7-7.1,3.8-14.136,4.928-21.325.805-5.126.31-10.458.377-15.7a8.605,8.605,0,0,0-5-8.275Q93.53,36.55,86.447,33.16a2.522,2.522,0,0,0-2.178.342c-2.573,2.052-4.932,4.378-7.557,6.355a58.448,58.448,0,0,1-8.938,5.957c-9.038,4.476-18.463,4.8-28.062,1.841-3.4-1.05-6.851-1.961-10.523-3M6.152,175.575H128.873c0-4.408.052-8.668-.011-12.926a19.306,19.306,0,0,0-14.506-18.462,40.15,40.15,0,0,0-8.51-.746A26.541,26.541,0,0,1,92.4,139.874c-1.342-.815-2.094-.69-3.226.387-8.037,7.647-17.563,10.442-28.445,8.256a29.586,29.586,0,0,1-15.48-8.5,1.776,1.776,0,0,0-2.635-.335,29.375,29.375,0,0,1-4.787,2.243c-4.135,1.571-8.478,1.457-12.813,1.509-9.265.111-17.574,6.952-18.747,16.124-.665,5.2-.12,10.56-.12,16.012M117.222,57.5c0-5.816.016-11.543,0-17.27A34.579,34.579,0,0,0,82.665,5.681q-15.277-.043-30.555.01a39.064,39.064,0,0,0-4.913.346A34.624,34.624,0,0,0,17.479,39.6c-.035,5.43-.011,10.861-.006,16.291,0,.53.055,1.06.089,1.686a21.447,21.447,0,0,1,4.221-1.424c1.6-.194,1.791-.937,1.767-2.285-.071-3.965-.035-7.932-.022-11.9.01-3.177,1.5-4.327,4.525-3.471,4.8,1.358,9.577,2.788,14.384,4.112,11.158,3.074,21.213.873,30.115-6.5,3.382-2.8,6.695-5.686,10-8.575a3.329,3.329,0,0,1,4.153-.568c5.526,2.836,11.133,5.515,16.642,8.383a13.317,13.317,0,0,1,7.513,10.589c.335,2.77.182,5.6.338,8.392.031.549.35,1.4.752,1.555,1.622.63,3.327,1.042,5.271,1.614M17.606,81.909V138.5c3.805-.273,7.489-.723,11.177-.765,10.876-.125,19.253-7.19,20.889-17.93a3.487,3.487,0,0,0-.825-2.545c-2.534-2.721-5.125-5.4-7.863-7.918a35.221,35.221,0,0,1-11.2-19.856c-.269-1.428-.876-1.894-2.3-1.812a9.205,9.205,0,0,1-8.6-4.215c-.3-.436-.67-.823-1.268-1.548m99.458,56.572V81.949c-.574.692-.949,1.077-1.248,1.514a9.2,9.2,0,0,1-8.6,4.209c-1.433-.082-2.032.4-2.3,1.818a35.346,35.346,0,0,1-11.2,19.862c-2.735,2.518-5.314,5.21-7.876,7.906a3.205,3.205,0,0,0-.88,2.193c.855,8.793,7.871,16.508,16.606,17.815,5.081.759,10.266.829,15.5,1.216M48.434,135c10.082,11.7,28.621,11.059,37.859-.05a27.87,27.87,0,0,1-6.616-12.587c-8.343,4.545-16.49,4.412-24.689.011A27.912,27.912,0,0,1,48.434,135M27.7,81.876,23.152,61.5a6.743,6.743,0,0,0-5.3,4.722c-1.023,3.192-.146,6.127,1.706,8.789,1.25,1.8,2.641,3.492,3.911,5.275A3.626,3.626,0,0,0,27.7,81.876M111.5,61.617c-1.519,6.85-3,13.55-4.492,20.263a3.625,3.625,0,0,0,4.217-1.586c1.2-1.682,2.591-3.242,3.666-5a17.03,17.03,0,0,0,2.144-4.767c1.058-4.4-1.549-8.34-5.534-8.913" transform="translate(-0.001 0)" fill="#1277f0"/>
                <path id="Path_11624" data-name="Path 11624" d="M67.849,88.435c3.671,1.044,7.118,1.955,10.523,3.005,9.6,2.962,19.024,2.634,28.062-1.842a58.465,58.465,0,0,0,8.939-5.957c2.625-1.977,4.985-4.3,7.557-6.355a2.522,2.522,0,0,1,2.178-.342q7.088,3.373,14.064,6.983a8.605,8.605,0,0,1,5,8.275c-.067,5.241.428,10.573-.378,15.7-1.13,7.189-3.231,14.226-4.928,21.325-.4,1.657-.868,3.3-1.256,4.954a27.011,27.011,0,0,1-7.417,13.206c-3.585,3.573-7.133,7.184-10.742,10.733-7.96,7.827-18.967,7.814-26.909-.024-3.559-3.513-7.06-7.084-10.614-10.6a27.448,27.448,0,0,1-7.531-13.342c-1.927-7.984-3.973-15.939-5.877-23.929a25.2,25.2,0,0,1-.638-5.423c-.082-5.352-.029-10.706-.029-16.364" transform="translate(-38.661 -43.785)" fill="#fff"/>
                <path id="Path_11625" data-name="Path 11625" d="M14.025,360.123c0-5.452-.545-10.809.12-16.012,1.174-9.171,9.482-16.012,18.747-16.124,4.335-.052,8.678.062,12.812-1.509a29.392,29.392,0,0,0,4.787-2.243,1.776,1.776,0,0,1,2.636.335,29.585,29.585,0,0,0,15.48,8.5c10.882,2.186,20.408-.609,28.445-8.256,1.133-1.077,1.884-1.2,3.226-.388a26.532,26.532,0,0,0,13.441,3.567,40.191,40.191,0,0,1,8.511.746A19.306,19.306,0,0,1,136.735,347.2c.064,4.258.011,8.518.011,12.926Z" transform="translate(-7.874 -184.548)" fill="#b2d5ff"/>
                <path id="Path_11626" data-name="Path 11626" d="M140.361,65.009c-1.944-.572-3.649-.984-5.271-1.614-.4-.156-.72-1.006-.751-1.555-.157-2.8,0-5.622-.339-8.392a13.316,13.316,0,0,0-7.514-10.589c-5.509-2.868-11.116-5.547-16.641-8.383a3.327,3.327,0,0,0-4.153.568c-3.307,2.89-6.619,5.775-10,8.575-8.9,7.372-18.957,9.574-30.115,6.5-4.808-1.324-9.586-2.754-14.385-4.112-3.024-.856-4.514.294-4.525,3.471-.013,3.966-.049,7.933.022,11.9.024,1.348-.17,2.092-1.767,2.285A21.459,21.459,0,0,0,40.7,65.086c-.034-.626-.088-1.156-.089-1.686,0-5.43-.029-10.861.006-16.291A34.623,34.623,0,0,1,70.336,13.544a38.884,38.884,0,0,1,4.912-.346q15.277-.046,30.555-.01a34.578,34.578,0,0,1,34.554,34.551c.019,5.727,0,11.454,0,17.27" transform="translate(-23.14 -7.506)" fill="#b2d5ff"/>
                <path id="Path_11627" data-name="Path 11627" d="M40.937,190.462c.6.726.968,1.112,1.268,1.548a9.2,9.2,0,0,0,8.6,4.215c1.428-.082,2.035.385,2.3,1.813a35.222,35.222,0,0,0,11.2,19.856c2.739,2.513,5.329,5.2,7.864,7.918A3.489,3.489,0,0,1,73,228.356c-1.635,10.74-10.012,17.8-20.889,17.929-3.689.043-7.372.493-11.177.765Z" transform="translate(-23.332 -108.553)" fill="#b2d5ff"/>
                <path id="Path_11628" data-name="Path 11628" d="M229.648,247.088c-5.232-.387-10.417-.456-15.5-1.216-8.735-1.306-15.751-9.021-16.606-17.814a3.2,3.2,0,0,1,.88-2.193c2.563-2.7,5.142-5.388,7.877-7.906A35.351,35.351,0,0,0,217.5,198.1c.269-1.422.868-1.9,2.3-1.818a9.2,9.2,0,0,0,8.6-4.209c.3-.437.674-.822,1.248-1.514Z" transform="translate(-112.585 -108.606)" fill="#b2d5ff"/>
                <path id="Path_11629" data-name="Path 11629" d="M112.621,297.176a27.906,27.906,0,0,0,6.554-12.626c8.2,4.4,16.346,4.534,24.689-.011a27.874,27.874,0,0,0,6.616,12.587c-9.238,11.109-27.777,11.751-37.859.049" transform="translate(-64.188 -162.172)" fill="#fff"/>
                <path id="Path_11630" data-name="Path 11630" d="M50.779,163.386A3.626,3.626,0,0,1,46.55,161.8c-1.27-1.783-2.662-3.479-3.911-5.274-1.852-2.663-2.729-5.6-1.706-8.79a6.742,6.742,0,0,1,5.3-4.722l4.545,20.372" transform="translate(-23.083 -81.51)" fill="#fff"/>
                <path id="Path_11631" data-name="Path 11631" d="M253.321,143.278c3.985.572,6.592,4.509,5.534,8.913a17.036,17.036,0,0,1-2.144,4.767c-1.075,1.756-2.465,3.315-3.666,5a3.625,3.625,0,0,1-4.217,1.586c1.489-6.713,2.973-13.413,4.492-20.263" transform="translate(-141.819 -81.661)" fill="#fff"/>
              </g>
            </g>
          </g>
        </g>
        <g id="Path_11635" data-name="Path 11635" transform="translate(0 0)" fill="none">
          <path d="M82.432,0A82.432,82.432,0,1,1,0,82.432,82.432,82.432,0,0,1,82.432,0Z" stroke="none"/>
          <path d="M 82.4317626953125 4 C 71.84178924560547 4 61.57069396972656 6.073165893554688 51.90380859375 10.16194152832031 C 47.25726318359375 12.12724304199219 42.77536010742188 14.55998229980469 38.58259582519531 17.39254760742188 C 34.42864990234375 20.19891357421875 30.5223388671875 23.42195129394531 26.97212219238281 26.97215270996094 C 23.42193603515625 30.5223388671875 20.19889831542969 34.42866516113281 17.39254760742188 38.58264923095703 C 14.55998229980469 42.77541351318359 12.12724304199219 47.25729370117188 10.16191101074219 51.90383911132812 C 6.073165893554688 61.57074737548828 4 71.84184265136719 4 82.43183898925781 C 4 93.02181243896484 6.073165893554688 103.2929077148438 10.16191101074219 112.9598159790039 C 12.12724304199219 117.6063613891602 14.55998229980469 122.0882720947266 17.39254760742188 126.2810287475586 C 20.19889831542969 130.4349822998047 23.42193603515625 134.34130859375 26.97213745117188 137.8915100097656 C 30.5223388671875 141.4416961669922 34.42864990234375 144.6647491455078 38.58261871337891 147.4710998535156 C 42.77536010742188 150.3036956787109 47.25726318359375 152.7364349365234 51.90380859375 154.7017517089844 C 61.57069396972656 158.7905120849609 71.84178924560547 160.8636779785156 82.4317626953125 160.8636779785156 C 93.02173614501953 160.8636779785156 103.2928085327148 158.7905120849609 112.9596862792969 154.7017517089844 C 117.6062393188477 152.7364349365234 122.0881423950195 150.3036956787109 126.2809066772461 147.4710998535156 C 130.4348602294922 144.6647491455078 134.3411865234375 141.4416961669922 137.8913879394531 137.8915100097656 C 141.4415740966797 134.34130859375 144.6646118164062 130.4349822998047 147.4709777832031 126.2810287475586 C 150.3035430908203 122.0882720947266 152.7362823486328 117.6063613891602 154.7015991210938 112.9598159790039 C 158.7903594970703 103.2929077148438 160.863525390625 93.02181243896484 160.863525390625 82.43183898925781 C 160.863525390625 71.84184265136719 158.7903594970703 61.57074737548828 154.7015991210938 51.90386199951172 C 152.7362823486328 47.25731658935547 150.3035430908203 42.77541351318359 147.4709777832031 38.58264923095703 C 144.6646118164062 34.42866516113281 141.4415740966797 30.5223388671875 137.8913879394531 26.97215270996094 C 134.3411865234375 23.42195129394531 130.4348602294922 20.19891357421875 126.2809066772461 17.39254760742188 C 122.0881423950195 14.55998229980469 117.6062393188477 12.12724304199219 112.9596862792969 10.16194152832031 C 103.2928085327148 6.073165893554688 93.02173614501953 4 82.4317626953125 4 M 82.4317626953125 0 C 127.95751953125 0 164.863525390625 36.90598297119141 164.863525390625 82.43183898925781 C 164.863525390625 127.957649230957 127.95751953125 164.8636779785156 82.4317626953125 164.8636779785156 C 36.90595245361328 164.8636779785156 0 127.957649230957 0 82.43183898925781 C 0 36.90598297119141 36.90595245361328 0 82.4317626953125 0 Z" stroke="none" fill="#f86c6c"/>
        </g>
        <g id="Group_13738" data-name="Group 13738" transform="translate(119.466 16.725)">
          <ellipse id="Ellipse_1735" data-name="Ellipse 1735" cx="27.365" cy="27.365" rx="27.365" ry="27.365" transform="translate(1.517 1.23)" fill="#fff"/>
          <path id="Path_11632" data-name="Path 11632" d="M50.2,10.5A28.237,28.237,0,1,0,45.979,50.2,28.183,28.183,0,0,0,50.2,10.5M3.231,25.576A25.148,25.148,0,0,1,46.379,10.82L7.394,42.307A25.037,25.037,0,0,1,3.231,25.576M50.412,40.114A25.156,25.156,0,0,1,10.1,45.654L49.081,14.167a25.184,25.184,0,0,1,1.331,25.947" transform="translate(-0.001 0)" fill="#f86c6c" stroke="#f86c6c" stroke-width="1"/>
        </g>
      </g>
      <g id="Group_18509" data-name="Group 18509" transform="translate(68.312 354.264)">
        <g id="Group_13729-2" data-name="Group 13729" transform="translate(0 0)">
          <ellipse id="Ellipse_1730-2" data-name="Ellipse 1730" cx="144.43" cy="142.366" rx="144.43" ry="142.366" fill="#fff"/>
          <g id="Mask_Group_18-2" data-name="Mask Group 18" clip-path="url(#clip-path-3)">
            <g id="Group_13730-2" data-name="Group 13730" transform="translate(47.702 35.356)">
              <g id="Group_13729-3" data-name="Group 13729" clip-path="url(#clip-path-4)">
                <path id="Path_11623-2" data-name="Path 11623" d="M188.366,258.09H0V228.938a14.079,14.079,0,0,0,.564-1.978A34.439,34.439,0,0,1,14.5,203.209a5.152,5.152,0,0,0,2.339-4.7q-.1-69.733-.023-139.466a64.042,64.042,0,0,1,.622-9.849C21.961,20.42,45.616.139,74.718.033q21.067-.077,42.133,0a57.631,57.631,0,0,1,19.37,3.236c23.484,8.4,38.451,29.8,38.466,55.074q.04,69.993-.034,139.987a5.388,5.388,0,0,0,2.392,4.939c7.989,6.013,13,14.031,13.792,24.049.644,8.1.3,16.282.552,24.422.086,2.756-.6,4.9-3.022,6.347M41.5,63.478c0,8.044-.074,15.655.042,23.264a35.9,35.9,0,0,0,.907,7.71c2.707,11.359,5.616,22.668,8.355,34.018A39.014,39.014,0,0,0,61.508,147.44c5.052,5,10.029,10.079,15.089,15.073,11.29,11.143,26.939,11.161,38.256.034,5.13-5.045,10.176-10.179,15.271-15.259a38.4,38.4,0,0,0,10.545-18.774c.552-2.358,1.222-4.688,1.785-7.043,2.413-10.092,5.4-20.1,7.006-30.317,1.145-7.288.441-14.869.536-22.319a12.234,12.234,0,0,0-7.1-11.764q-9.924-5.108-19.994-9.927a3.585,3.585,0,0,0-3.1.486c-3.657,2.918-7.012,6.225-10.744,9.035-4.065,3.061-8.18,6.226-12.707,8.468C83.5,71.5,70.1,71.962,56.456,67.75c-4.839-1.493-9.74-2.788-14.96-4.272M8.746,249.612H183.216c0-6.267.075-12.323-.016-18.377a27.447,27.447,0,0,0-20.622-26.247c-3.89-.951-8.053-.962-12.1-1.06-6.806-.166-13.269-1.525-19.109-5.071-1.908-1.158-2.976-.981-4.586.551-11.426,10.872-24.969,14.845-40.439,11.738a42.063,42.063,0,0,1-22.008-12.079c-1.267-1.286-2.167-1.432-3.747-.476a41.757,41.757,0,0,1-6.805,3.188c-5.878,2.233-12.053,2.072-18.215,2.146-13.171.158-24.984,9.884-26.653,22.923-.946,7.4-.171,15.013-.171,22.764M166.652,81.751c0-8.269.023-16.411,0-24.553a49.16,49.16,0,0,0-49.125-49.12q-21.72-.061-43.439.015a55.537,55.537,0,0,0-6.985.492C43.523,11.661,25,32.583,24.849,56.3c-.05,7.72-.015,15.441-.009,23.161,0,.754.078,1.507.127,2.4,2.124-.751,4.014-1.784,6-2.025,2.271-.275,2.546-1.332,2.512-3.248-.1-5.636-.05-11.277-.031-16.915.014-4.517,2.133-6.152,6.433-4.935C46.7,56.667,53.5,58.7,60.332,60.582c15.863,4.37,30.158,1.241,42.814-9.241,4.808-3.981,9.518-8.083,14.217-12.191a4.732,4.732,0,0,1,5.9-.808c7.856,4.032,15.827,7.841,23.659,11.919,6.064,3.158,9.853,8.206,10.682,15.054.476,3.937.259,7.956.481,11.93.045.781.5,1.989,1.069,2.211,2.306.9,4.73,1.481,7.493,2.295m-141.622,34.7V196.9c5.41-.388,10.646-1.028,15.89-1.088,15.462-.177,27.372-10.222,29.7-25.49a4.957,4.957,0,0,0-1.173-3.618c-3.6-3.869-7.285-7.684-11.179-11.256a50.073,50.073,0,0,1-15.929-28.229c-.383-2.03-1.245-2.693-3.276-2.576a13.087,13.087,0,0,1-12.227-5.992c-.426-.62-.953-1.17-1.8-2.2m141.4,80.428V116.505c-.816.983-1.349,1.531-1.775,2.152a13.078,13.078,0,0,1-12.229,5.984c-2.037-.116-2.888.562-3.27,2.584a50.25,50.25,0,0,1-15.919,28.237c-3.888,3.58-7.555,7.407-11.2,11.24a4.557,4.557,0,0,0-1.252,3.118c1.216,12.5,11.19,23.47,23.609,25.327,7.224,1.08,14.6,1.178,22.034,1.728m-97.569-4.944c14.333,16.636,40.69,15.722,53.823-.071a39.622,39.622,0,0,1-9.406-17.894c-11.862,6.461-23.444,6.272-35.1.016a39.682,39.682,0,0,1-9.318,17.949M39.376,116.4,32.914,87.439a9.587,9.587,0,0,0-7.537,6.713c-1.455,4.538-.208,8.711,2.425,12.5,1.777,2.554,3.755,4.965,5.561,7.5a5.155,5.155,0,0,0,6.012,2.255M158.521,87.6c-2.159,9.739-4.27,19.264-6.387,28.807a5.154,5.154,0,0,0,5.995-2.254c1.708-2.392,3.684-4.609,5.212-7.105a24.215,24.215,0,0,0,3.048-6.777c1.5-6.261-2.2-11.857-7.868-12.671" transform="translate(0 0)" fill="#1277f0"/>
                <path id="Path_11624-2" data-name="Path 11624" d="M67.856,93.331c5.22,1.484,10.12,2.779,14.96,4.272,13.647,4.211,27.046,3.744,39.9-2.619,4.528-2.243,8.643-5.408,12.708-8.468,3.732-2.81,7.087-6.117,10.744-9.035a3.586,3.586,0,0,1,3.1-.486q10.077,4.8,19.994,9.927a12.234,12.234,0,0,1,7.1,11.764c-.1,7.45.609,15.031-.537,22.319-1.607,10.221-4.593,20.225-7.005,30.317-.564,2.355-1.234,4.686-1.785,7.043a38.4,38.4,0,0,1-10.545,18.775c-5.1,5.08-10.141,10.214-15.271,15.259-11.317,11.128-26.965,11.109-38.256-.034-5.06-4.994-10.037-10.072-15.09-15.073A39.023,39.023,0,0,1,77.16,158.324c-2.739-11.351-5.649-22.66-8.355-34.019a35.816,35.816,0,0,1-.907-7.71c-.116-7.609-.042-15.221-.042-23.264" transform="translate(-26.36 -29.854)" fill="#fff"/>
                <path id="Path_11625-2" data-name="Path 11625" d="M14.114,375.439c0-7.751-.775-15.367.171-22.764,1.669-13.038,13.481-22.765,26.653-22.923,6.163-.074,12.337.088,18.215-2.146a41.764,41.764,0,0,0,6.805-3.188c1.58-.956,2.48-.811,3.747.477a42.062,42.062,0,0,0,22.007,12.078c15.471,3.108,29.013-.866,40.439-11.738,1.61-1.531,2.679-1.708,4.587-.551,5.84,3.546,12.3,4.905,19.109,5.071,4.047.1,8.209.109,12.1,1.06a27.448,27.448,0,0,1,20.622,26.248c.09,6.053.016,12.109.016,18.377Z" transform="translate(-5.368 -125.829)" fill="#b2d5ff"/>
                <path id="Path_11626-2" data-name="Path 11626" d="M182.428,86.868c-2.764-.813-5.188-1.4-7.493-2.294-.571-.222-1.024-1.431-1.068-2.211-.223-3.975-.006-7.992-.482-11.93-.828-6.848-4.618-11.9-10.682-15.054-7.831-4.078-15.8-7.886-23.659-11.919a4.731,4.731,0,0,0-5.9.808c-4.7,4.108-9.41,8.21-14.218,12.191C106.266,66.94,91.972,70.07,76.109,65.7c-6.835-1.882-13.629-3.915-20.451-5.846-4.3-1.217-6.418.418-6.432,4.935-.018,5.638-.07,11.278.032,16.914.034,1.917-.242,2.974-2.512,3.249-1.986.241-3.877,1.274-6,2.025-.049-.89-.125-1.643-.126-2.4-.007-7.72-.042-15.441.009-23.161C40.779,37.7,59.3,16.779,82.876,13.7a55.278,55.278,0,0,1,6.984-.492q21.72-.066,43.44-.015a49.159,49.159,0,0,1,49.125,49.12c.028,8.142,0,16.284,0,24.553" transform="translate(-15.777 -5.118)" fill="#b2d5ff"/>
                <path id="Path_11627-2" data-name="Path 11627" d="M40.937,190.462c.85,1.031,1.377,1.582,1.8,2.2a13.085,13.085,0,0,0,12.227,5.992c2.03-.116,2.893.547,3.276,2.577a50.074,50.074,0,0,0,15.929,28.228c3.894,3.573,7.576,7.388,11.179,11.256a4.959,4.959,0,0,1,1.173,3.618c-2.325,15.269-14.235,25.313-29.7,25.49-5.244.06-10.481.7-15.89,1.088Z" transform="translate(-15.908 -74.014)" fill="#b2d5ff"/>
                <path id="Path_11628-2" data-name="Path 11628" d="M243.189,270.927c-7.439-.55-14.81-.649-22.035-1.729-12.418-1.856-22.393-12.825-23.609-25.326a4.557,4.557,0,0,1,1.252-3.118c3.643-3.833,7.31-7.659,11.2-11.24a50.258,50.258,0,0,0,15.919-28.237c.383-2.022,1.234-2.7,3.27-2.585a13.078,13.078,0,0,0,12.229-5.984c.426-.621.959-1.169,1.775-2.152Z" transform="translate(-76.762 -74.05)" fill="#b2d5ff"/>
                <path id="Path_11629-2" data-name="Path 11629" d="M112.621,302.5a39.676,39.676,0,0,0,9.318-17.949c11.656,6.256,23.239,6.446,35.1-.016a39.631,39.631,0,0,0,9.406,17.895c-13.133,15.793-39.49,16.706-53.823.07" transform="translate(-43.765 -110.572)" fill="#fff"/>
                <path id="Path_11630-2" data-name="Path 11630" d="M55.114,171.977a5.155,5.155,0,0,1-6.013-2.255c-1.805-2.534-3.785-4.946-5.561-7.5-2.633-3.786-3.88-7.958-2.425-12.5a9.586,9.586,0,0,1,7.537-6.713l6.462,28.963" transform="translate(-15.738 -55.575)" fill="#fff"/>
                <path id="Path_11631-2" data-name="Path 11631" d="M255.216,143.278c5.665.814,9.372,6.41,7.868,12.671a24.227,24.227,0,0,1-3.048,6.777c-1.528,2.5-3.5,4.713-5.212,7.105a5.154,5.154,0,0,1-5.995,2.254c2.117-9.543,4.227-19.068,6.387-28.807" transform="translate(-96.695 -55.678)" fill="#fff"/>
              </g>
            </g>
          </g>
          <g id="Ellipse_1732" data-name="Ellipse 1732" fill="none" stroke="#1277f0" stroke-width="10">
            <ellipse cx="144.43" cy="142.366" rx="144.43" ry="142.366" stroke="none"/>
            <ellipse cx="144.43" cy="142.366" rx="139.43" ry="137.366" fill="none"/>
          </g>
        </g>
        <g id="Group_13734" data-name="Group 13734" transform="translate(229.393 29.786)">
          <ellipse id="Ellipse_1733" data-name="Ellipse 1733" cx="45.392" cy="47.456" rx="45.392" ry="47.456" transform="translate(4.866 3.227)" fill="#fff"/>
          <g id="Icon_ionic-ios-checkmark-circle-outline" data-name="Icon ionic-ios-checkmark-circle-outline">
            <path id="Path_11633" data-name="Path 11633" d="M62.366,16.885,58.1,12.5a.917.917,0,0,0-.679-.291h0a.88.88,0,0,0-.679.291l-29.578,29.8L16.4,31.529a.937.937,0,0,0-1.358,0l-4.315,4.315a.966.966,0,0,0,0,1.382L24.3,50.8a4.294,4.294,0,0,0,2.837,1.382,4.5,4.5,0,0,0,2.812-1.333h.024L62.39,18.267A1.036,1.036,0,0,0,62.366,16.885Z" transform="translate(13.907 18.245)" fill="#0ed343"/>
            <path id="Path_11634" data-name="Path 11634" d="M53.8,10.163a43.647,43.647,0,0,1,30.863,74.5A43.647,43.647,0,0,1,22.94,22.94,43.351,43.351,0,0,1,53.8,10.163m0-6.788A50.428,50.428,0,1,0,104.231,53.8,50.42,50.42,0,0,0,53.8,3.375Z" transform="translate(-3.375 -3.375)" fill="#0ed343" stroke="#0ed343" stroke-width="1"/>
          </g>
        </g>
      </g>
    </g>
  </g>
</svg>
