<svg xmlns="http://www.w3.org/2000/svg" xmlns:xlink="http://www.w3.org/1999/xlink" width="513.798" height="286.94" viewBox="0 0 513.798 286.94">
  <defs>
    <clipPath id="clip-path">
      <ellipse id="Ellipse_1731" data-name="Ellipse 1731" cx="51.604" cy="50.867" rx="51.604" ry="50.867" fill="#fff" stroke="#1277f0" stroke-width="4"/>
    </clipPath>
  </defs>
  <g id="Group_18537" data-name="Group 18537" transform="translate(-56.208 -535.432)">
    <g id="Group_18516" data-name="Group 18516" transform="translate(352.967 587.247)">
      <g id="Group_13203" data-name="Group 13203" transform="translate(0 0)">
        <path id="Path_11524" data-name="Path 11524" d="M131.49,0V36.173c1.488,0,2.777.081,4.055-.012,10.777-.792,14.707,2.915,14.093,14.187-.343,6.292-.062,12.618-.062,18.929v2.168c7.112,1.5,14.079,2.307,20.6,4.463,25.105,8.305,42.49,32.508,42.69,58.7.048,6.331-3.59,10.072-9.9,10.083-14.317.023-28.634.05-42.951-.041-2.034-.013-2.867.592-3.532,2.553a35.833,35.833,0,0,1-68.07-.008c-.666-1.974-1.514-2.556-3.536-2.544-14.128.089-28.257.053-42.386.045-7.048,0-10.551-3.592-10.451-10.665.441-30.946,24.992-57.852,55.844-61.187,2.335-.253,4.679-.424,7.438-.671v-2.9q0-11.445,0-22.888c.012-6.585,3.561-10.168,10.071-10.2,2.534-.011,5.069,0,8.012,0V0Zm62.192,126.515a12.452,12.452,0,0,0-.129-1.412c-4.492-19.579-22.734-34.445-42.87-34.622q-28.238-.248-56.48,0c-18.282.149-35.255,12.5-41.347,29.792-.7,1.981-1.218,4.025-1.881,6.243ZM113.506,72.124h17.836V54.432H113.506Zm-6.24,72.631a17.1,17.1,0,0,0,16.566,8.907,17.6,17.6,0,0,0,14.037-8.907Z" transform="translate(-13.928 0)" fill="#1277f0"/>
        <path id="Path_11525" data-name="Path 11525" d="M0,314.987a70.92,70.92,0,0,1,5.159-6.564q16.581-16.786,33.349-33.387c5.325-5.281,13.611-3.2,15.436,3.805a8.333,8.333,0,0,1-2.147,8.367c-12.145,12.232-24.288,24.466-36.575,36.554-4.466,4.395-11.4,2.979-14.284-2.573-.3-.569-.624-1.121-.937-1.681v-4.522" transform="translate(0 -118.297)" fill="#b2d5ff"/>
        <path id="Path_11526" data-name="Path 11526" d="M342.224,319.438c-.314.559-.644,1.109-.938,1.678-2.874,5.552-9.827,6.967-14.284,2.58q-18.425-18.138-36.566-36.565a8.981,8.981,0,0,1,12.652-12.736q18.5,18.261,36.763,36.768a20.23,20.23,0,0,1,2.374,3.754Z" transform="translate(-125.186 -118.225)" fill="#b2d5ff"/>
        <path id="Path_11527" data-name="Path 11527" d="M245.649,374.252c-3.911-1.651-5.825-4.861-7.324-8.667-4.2-10.652-8.7-21.184-12.893-31.836a13.851,13.851,0,0,1-.96-6.525,8.578,8.578,0,0,1,7.67-7.178,9.06,9.06,0,0,1,9.459,5.662c3.66,8.743,7.207,17.534,10.8,26.306,1.03,2.519,2.039,5.047,3.07,7.566,3.01,7.358,1.654,11.119-5.3,14.67Z" transform="translate(-97.566 -139.128)" fill="#b2d5ff"/>
        <path id="Path_11528" data-name="Path 11528" d="M108.763,374.25c-6.957-3.552-8.309-7.3-5.3-14.665,4.584-11.2,9.131-22.425,13.766-33.608,1.892-4.565,6.319-6.849,10.654-5.708,5.565,1.464,8.247,7.033,5.965,12.707-4.379,10.882-8.948,21.689-13.239,32.606-1.5,3.815-3.452,6.986-7.327,8.668Z" transform="translate(-44.33 -139.125)" fill="#b2d5ff"/>
        <path id="Path_11529" data-name="Path 11529" d="M165.141,256.112h30.6a17.6,17.6,0,0,1-14.037,8.907,17.1,17.1,0,0,1-16.566-8.907" transform="translate(-71.803 -111.357)" fill="#b2d5ff"/>
      </g>
    </g>
    <g id="Group_18522" data-name="Group 18522" transform="translate(56.208 535.932)">
      <g id="Group_18519" data-name="Group 18519" transform="translate(0 37.451)">
        <g id="Group_13746" data-name="Group 13746">
          <path id="Path_11647" data-name="Path 11647" d="M227.954,248.989H103.46a58.069,58.069,0,0,1-7.287-2.42c-10.82-5.2-15.928-14.024-15.93-25.911q-.012-75.741,0-151.48c0-13.778-.03-27.557.01-41.335C80.28,17.285,84.621,8.987,93.81,3.654c2.935-1.7,6.418-2.463,9.65-3.654H227.954c1.456.414,2.922.8,4.367,1.246C243.95,4.878,251.165,15.21,251.168,28.33q.018,84.248.005,168.5c0,8.186.058,16.372-.014,24.557-.112,12.57-7.482,22.824-18.842,26.352-1.445.449-2.908.836-4.363,1.252M94.828,124.431q0,48.262.006,96.525c0,8.422,5.063,13.437,13.489,13.442q24.678.013,49.356,0,32.945,0,65.89.013a12.593,12.593,0,0,0,9.94-4.235c2.473-2.772,3.091-6.109,3.09-9.7q-.029-95.917-.016-191.833c0-.729.016-1.461-.036-2.187a12.255,12.255,0,0,0-12.6-11.859c-2.431-.025-4.867.085-7.292-.038a2.183,2.183,0,0,0-2.56,1.851c-2.278,7.086-4.672,14.135-7.035,21.193-1.546,4.616-3.711,6.164-8.646,6.165q-32.7.007-65.4,0c-4.95,0-7.1-1.536-8.646-6.164-2.363-7.059-4.692-14.129-7.11-21.168-.241-.7-.981-1.737-1.515-1.753a62.677,62.677,0,0,0-10.674.153c-6.4.911-10.226,6.139-10.228,13.318q-.015,48.141,0,96.281M199.294,14.75H132.129c.956,2.877,1.828,5.561,2.74,8.23.678,1.983.863,4.736,2.264,5.706,1.5,1.041,4.173.477,6.334.48q24.43.034,48.859.01c1.1,0,2.164.246,2.648-1.355,1.31-4.324,2.821-8.586,4.319-13.071" transform="translate(-41.212)" fill="#1277f0"/>
          <path id="Path_11648" data-name="Path 11648" d="M0,132.076q3.383-9.174,6.764-18.35c.53-1.441.965-2.92,1.547-4.339a7.288,7.288,0,0,1,9.152-4.3,7.193,7.193,0,0,1,4.493,9.216c-1.971,5.9-4.191,11.725-6.108,17.645a7.5,7.5,0,0,0,.044,4.34c1.791,5.536,3.77,11.014,5.77,16.48a9.493,9.493,0,0,1-.018,6.848c-2.064,5.615-4.069,11.253-5.961,16.928a5.815,5.815,0,0,0,0,3.445c1.891,5.675,3.9,11.313,5.961,16.928a9.491,9.491,0,0,1,.024,6.848c-2,5.467-3.825,11-5.873,16.444a6.123,6.123,0,0,0,.058,4.629c2.022,5.458,3.923,10.961,5.837,16.458,1.615,4.634-.116,8.749-4.222,10.146-4.037,1.375-7.88-.682-9.5-5.19C5.608,239.717,3.328,233.149.995,226.6c-.261-.733-.66-1.418-.995-2.125v-3.891q3.562-9.74,7.1-19.488a2.228,2.228,0,0,0,.014-1.4C4.768,193.195,2.38,186.709,0,180.22v-3.89c2.38-6.489,4.768-12.974,7.119-19.473a2.228,2.228,0,0,0-.014-1.4Q3.584,145.7,0,135.966v-3.89" transform="translate(0 -53.781)" fill="#b2d5ff"/>
          <path id="Path_11649" data-name="Path 11649" d="M488.369,223.966c-2.636,7.384-5.291,14.761-7.9,22.156-1.013,2.873-2.729,4.991-5.85,5.547a7.173,7.173,0,0,1-8.238-9.345c1.925-5.923,4.18-11.739,6.1-17.661a7.517,7.517,0,0,0,.028-4.343c-1.756-5.467-3.688-10.88-5.693-16.262a9.927,9.927,0,0,1-.039-7.307c2.005-5.382,3.777-10.851,5.795-16.228a6.138,6.138,0,0,0-.052-4.632c-1.992-5.387-3.786-10.848-5.775-16.236a9.689,9.689,0,0,1,.028-7.076c2.055-5.536,4.027-11.105,5.878-16.712a6.24,6.24,0,0,0-.016-3.673c-1.888-5.68-3.969-11.3-5.947-16.946-1.618-4.621.106-8.758,4.188-10.168s7.949.74,9.612,5.4c2.31,6.477,4.578,12.969,6.885,19.447.261.733.659,1.418.993,2.125v3.89q-3.563,9.74-7.106,19.488a2.231,2.231,0,0,0-.015,1.4c2.352,6.5,4.74,12.984,7.121,19.473v3.89c-2.38,6.488-4.77,12.973-7.121,19.472a2.23,2.23,0,0,0,.015,1.4c2.348,6.5,4.732,12.995,7.107,19.488Z" transform="translate(-239.38 -53.759)" fill="#b2d5ff"/>
        </g>
        <g id="Group_13747" data-name="Group 13747" transform="translate(72.89 75.905)">
          <ellipse id="Ellipse_1730" data-name="Ellipse 1730" cx="51.604" cy="50.867" rx="51.604" ry="50.867" fill="#fff"/>
          <g id="Mask_Group_18" data-name="Mask Group 18" clip-path="url(#clip-path)">
            <g id="Group_13730" data-name="Group 13730" transform="translate(14.722 7.862)" style="mix-blend-mode: normal;isolation: isolate">
              <g id="Group_13748" data-name="Group 13748" transform="translate(0 0)">
                <path id="Path_11651" data-name="Path 11651" d="M72.6,99.469H0V88.233a5.426,5.426,0,0,0,.217-.762,13.273,13.273,0,0,1,5.372-9.154,1.985,1.985,0,0,0,.9-1.811q-.037-26.875-.009-53.751a24.682,24.682,0,0,1,.24-3.8A22.11,22.11,0,0,1,28.8.013q8.119-.03,16.238,0a22.156,22.156,0,0,1,22.29,22.473q.016,26.976-.013,53.951a2.077,2.077,0,0,0,.922,1.9A12.588,12.588,0,0,1,73.55,87.61c.248,3.123.115,6.275.213,9.412A2.451,2.451,0,0,1,72.6,99.469m-56.6-75c0,3.1-.029,6.034.016,8.966a13.834,13.834,0,0,0,.35,2.971c1.043,4.378,2.165,8.736,3.22,13.111a15.036,15.036,0,0,0,4.126,7.311c1.947,1.928,3.865,3.885,5.815,5.809a10.052,10.052,0,0,0,14.744.013c1.977-1.944,3.922-3.923,5.885-5.881a14.8,14.8,0,0,0,4.064-7.236c.213-.909.471-1.807.688-2.715.93-3.89,2.081-7.745,2.7-11.684a60.862,60.862,0,0,0,.207-8.6A4.715,4.715,0,0,0,55.072,22q-3.825-1.969-7.706-3.826a1.382,1.382,0,0,0-1.193.187c-1.41,1.124-2.7,2.4-4.141,3.482a32.026,32.026,0,0,1-4.9,3.264,20.132,20.132,0,0,1-15.376,1.009c-1.865-.575-3.754-1.074-5.766-1.646M3.371,96.2H70.613c0-2.415.029-4.749-.006-7.082A10.578,10.578,0,0,0,62.659,79,22,22,0,0,0,58,78.594a14.542,14.542,0,0,1-7.365-1.954,1.208,1.208,0,0,0-1.767.212,16.7,16.7,0,0,1-15.585,4.524A16.211,16.211,0,0,1,24.8,76.721a.973.973,0,0,0-1.444-.183,16.1,16.1,0,0,1-2.623,1.229,20,20,0,0,1-7.02.827A10.442,10.442,0,0,0,3.437,87.428,70.254,70.254,0,0,0,3.371,96.2M64.229,31.507c0-3.187.009-6.325,0-9.463A18.947,18.947,0,0,0,45.294,3.113q-8.371-.023-16.742.006a21.4,21.4,0,0,0-2.692.189A18.971,18.971,0,0,0,9.578,21.7c-.019,2.975-.006,5.951,0,8.926,0,.291.03.581.049.924a11.752,11.752,0,0,1,2.313-.78c.875-.106.981-.513.968-1.252-.039-2.172-.019-4.346-.012-6.519.005-1.741.822-2.371,2.479-1.9,2.629.744,5.247,1.528,7.882,2.253a17.319,17.319,0,0,0,16.5-3.562c1.853-1.534,3.668-3.115,5.479-4.7a1.824,1.824,0,0,1,2.276-.311c3.028,1.554,6.1,3.022,9.118,4.593a7.3,7.3,0,0,1,4.117,5.8c.183,1.517.1,3.066.185,4.6.017.3.192.767.412.852.889.345,1.823.571,2.888.884M9.647,44.88V75.886c2.085-.149,4.1-.4,6.124-.419a11.28,11.28,0,0,0,11.445-9.824,1.911,1.911,0,0,0-.452-1.394c-1.388-1.491-2.808-2.961-4.308-4.338a19.3,19.3,0,0,1-6.139-10.88c-.148-.782-.48-1.038-1.263-.993a5.044,5.044,0,0,1-4.712-2.309c-.164-.239-.367-.451-.695-.848m54.5,31V44.9c-.315.379-.52.59-.684.829a5.04,5.04,0,0,1-4.713,2.306c-.785-.045-1.113.217-1.26,1a19.366,19.366,0,0,1-6.135,10.883c-1.5,1.38-2.912,2.855-4.316,4.332a1.756,1.756,0,0,0-.482,1.2,11.083,11.083,0,0,0,9.1,9.761c2.784.416,5.625.454,8.492.666m-37.6-1.905a13.817,13.817,0,0,0,20.744-.027,15.271,15.271,0,0,1-3.625-6.9,13.364,13.364,0,0,1-13.528.006,15.294,15.294,0,0,1-3.591,6.918M15.176,44.862,12.686,33.7a3.7,3.7,0,0,0-2.9,2.587,5.308,5.308,0,0,0,.935,4.816c.685.984,1.447,1.914,2.143,2.89a1.987,1.987,0,0,0,2.317.869M61.1,33.761c-.832,3.753-1.646,7.424-2.461,11.1a1.987,1.987,0,0,0,2.31-.869c.658-.922,1.42-1.776,2.009-2.738a9.333,9.333,0,0,0,1.175-2.612A3.832,3.832,0,0,0,61.1,33.761" transform="translate(0 0.001)" fill="none" stroke="#fff" stroke-width="2"/>
                <path id="Path_11623" data-name="Path 11623" d="M72.6,99.469H0V88.233a5.426,5.426,0,0,0,.217-.762,13.273,13.273,0,0,1,5.372-9.154,1.985,1.985,0,0,0,.9-1.811q-.037-26.875-.009-53.751a24.682,24.682,0,0,1,.24-3.8A22.11,22.11,0,0,1,28.8.013q8.119-.03,16.238,0a22.156,22.156,0,0,1,22.29,22.473q.016,26.976-.013,53.951a2.077,2.077,0,0,0,.922,1.9A12.588,12.588,0,0,1,73.55,87.61c.248,3.123.115,6.275.213,9.412A2.451,2.451,0,0,1,72.6,99.469m-56.6-75c0,3.1-.029,6.034.016,8.966a13.834,13.834,0,0,0,.35,2.971c1.043,4.378,2.165,8.736,3.22,13.111a15.036,15.036,0,0,0,4.126,7.311c1.947,1.928,3.865,3.885,5.815,5.809a10.052,10.052,0,0,0,14.744.013c1.977-1.944,3.922-3.923,5.885-5.881a14.8,14.8,0,0,0,4.064-7.236c.213-.909.471-1.807.688-2.715.93-3.89,2.081-7.745,2.7-11.684a60.862,60.862,0,0,0,.207-8.6A4.715,4.715,0,0,0,55.072,22q-3.825-1.969-7.706-3.826a1.382,1.382,0,0,0-1.193.187c-1.41,1.124-2.7,2.4-4.141,3.482a32.026,32.026,0,0,1-4.9,3.264,20.132,20.132,0,0,1-15.376,1.009c-1.865-.575-3.754-1.074-5.766-1.646M3.371,96.2H70.613c0-2.415.029-4.749-.006-7.082A10.578,10.578,0,0,0,62.659,79,22,22,0,0,0,58,78.594a14.542,14.542,0,0,1-7.365-1.954,1.208,1.208,0,0,0-1.767.212,16.7,16.7,0,0,1-15.585,4.524A16.211,16.211,0,0,1,24.8,76.721a.973.973,0,0,0-1.444-.183,16.1,16.1,0,0,1-2.623,1.229,20,20,0,0,1-7.02.827A10.442,10.442,0,0,0,3.437,87.428,70.254,70.254,0,0,0,3.371,96.2M64.229,31.507c0-3.187.009-6.325,0-9.463A18.947,18.947,0,0,0,45.294,3.113q-8.371-.023-16.742.006a21.4,21.4,0,0,0-2.692.189A18.971,18.971,0,0,0,9.578,21.7c-.019,2.975-.006,5.951,0,8.926,0,.291.03.581.049.924a11.752,11.752,0,0,1,2.313-.78c.875-.106.981-.513.968-1.252-.039-2.172-.019-4.346-.012-6.519.005-1.741.822-2.371,2.479-1.9,2.629.744,5.247,1.528,7.882,2.253a17.319,17.319,0,0,0,16.5-3.562c1.853-1.534,3.668-3.115,5.479-4.7a1.824,1.824,0,0,1,2.276-.311c3.028,1.554,6.1,3.022,9.118,4.593a7.3,7.3,0,0,1,4.117,5.8c.183,1.517.1,3.066.185,4.6.017.3.192.767.412.852.889.345,1.823.571,2.888.884M9.647,44.88V75.886c2.085-.149,4.1-.4,6.124-.419a11.28,11.28,0,0,0,11.445-9.824,1.911,1.911,0,0,0-.452-1.394c-1.388-1.491-2.808-2.961-4.308-4.338a19.3,19.3,0,0,1-6.139-10.88c-.148-.782-.48-1.038-1.263-.993a5.044,5.044,0,0,1-4.712-2.309c-.164-.239-.367-.451-.695-.848m54.5,31V44.9c-.315.379-.52.59-.684.829a5.04,5.04,0,0,1-4.713,2.306c-.785-.045-1.113.217-1.26,1a19.366,19.366,0,0,1-6.135,10.883c-1.5,1.38-2.912,2.855-4.316,4.332a1.756,1.756,0,0,0-.482,1.2,11.083,11.083,0,0,0,9.1,9.761c2.784.416,5.625.454,8.492.666m-37.6-1.905a13.817,13.817,0,0,0,20.744-.027,15.271,15.271,0,0,1-3.625-6.9,13.364,13.364,0,0,1-13.528.006,15.294,15.294,0,0,1-3.591,6.918M15.176,44.862,12.686,33.7a3.7,3.7,0,0,0-2.9,2.587,5.308,5.308,0,0,0,.935,4.816c.685.984,1.447,1.914,2.143,2.89a1.987,1.987,0,0,0,2.317.869M61.1,33.761c-.832,3.753-1.646,7.424-2.461,11.1a1.987,1.987,0,0,0,2.31-.869c.658-.922,1.42-1.776,2.009-2.738a9.333,9.333,0,0,0,1.175-2.612A3.832,3.832,0,0,0,61.1,33.761" transform="translate(-0.001 0)" fill="#1277f0"/>
                <path id="Path_11624" data-name="Path 11624" d="M67.842,83.186c2.012.572,3.9,1.071,5.765,1.647a20.132,20.132,0,0,0,15.376-1.009,32.041,32.041,0,0,0,4.9-3.264c1.438-1.083,2.731-2.358,4.141-3.482a1.382,1.382,0,0,1,1.193-.187q3.884,1.848,7.706,3.826a4.715,4.715,0,0,1,2.737,4.534,60.874,60.874,0,0,1-.207,8.6c-.619,3.939-1.77,7.795-2.7,11.684-.217.908-.476,1.806-.688,2.714A14.8,14.8,0,0,1,102,115.486c-1.964,1.958-3.908,3.936-5.886,5.881a10.052,10.052,0,0,1-14.744-.013c-1.95-1.925-3.868-3.882-5.816-5.809a15.04,15.04,0,0,1-4.126-7.311c-1.056-4.375-2.177-8.733-3.22-13.111a13.809,13.809,0,0,1-.35-2.971c-.045-2.933-.016-5.866-.016-8.966" transform="translate(-51.849 -58.721)" fill="#fff"/>
                <path id="Path_11625" data-name="Path 11625" d="M13.93,343.7A70.255,70.255,0,0,1,14,334.928a10.442,10.442,0,0,1,10.272-8.834,20,20,0,0,0,7.02-.827,16.088,16.088,0,0,0,2.623-1.229.973.973,0,0,1,1.444.184,16.212,16.212,0,0,0,8.482,4.655,16.7,16.7,0,0,0,15.585-4.524,1.209,1.209,0,0,1,1.768-.212,14.543,14.543,0,0,0,7.365,1.955,22,22,0,0,1,4.663.409,10.578,10.578,0,0,1,7.948,10.116c.035,2.333.006,4.667.006,7.083Z" transform="translate(-10.56 -247.501)" fill="#b2d5ff"/>
                <path id="Path_11626" data-name="Path 11626" d="M95.261,41.574c-1.065-.313-2-.539-2.888-.884-.22-.086-.395-.551-.412-.852-.086-1.532,0-3.08-.186-4.6a7.3,7.3,0,0,0-4.117-5.8c-3.018-1.572-6.09-3.039-9.118-4.593a1.823,1.823,0,0,0-2.275.311c-1.812,1.583-3.627,3.164-5.48,4.7a17.319,17.319,0,0,1-16.5,3.561c-2.634-.726-5.253-1.509-7.882-2.253-1.657-.469-2.473.161-2.479,1.9-.007,2.173-.027,4.347.012,6.519.013.739-.093,1.146-.968,1.252a11.758,11.758,0,0,0-2.313.78c-.019-.343-.048-.633-.049-.924,0-2.975-.016-5.951,0-8.926A18.971,18.971,0,0,1,56.893,13.375a21.3,21.3,0,0,1,2.692-.189q8.371-.025,16.742-.006A18.946,18.946,0,0,1,95.259,32.111c.011,3.138,0,6.276,0,9.463" transform="translate(-31.033 -10.067)" fill="#b2d5ff"/>
                <path id="Path_11627" data-name="Path 11627" d="M40.937,190.462c.328.4.531.61.695.848a5.043,5.043,0,0,0,4.712,2.309c.783-.045,1.115.211,1.263.993a19.3,19.3,0,0,0,6.139,10.879c1.5,1.377,2.92,2.848,4.309,4.338a1.911,1.911,0,0,1,.452,1.394,11.28,11.28,0,0,1-11.445,9.824c-2.021.023-4.039.27-6.124.419Z" transform="translate(-31.291 -145.582)" fill="#b2d5ff"/>
                <path id="Path_11628" data-name="Path 11628" d="M215.13,221.53c-2.867-.212-5.708-.25-8.492-.666a11.083,11.083,0,0,1-9.1-9.761,1.756,1.756,0,0,1,.482-1.2c1.4-1.477,2.817-2.952,4.316-4.332a19.369,19.369,0,0,0,6.135-10.883c.148-.779.475-1.041,1.261-1a5.04,5.04,0,0,0,4.713-2.306c.164-.239.369-.451.684-.829Z" transform="translate(-150.989 -145.653)" fill="#b2d5ff"/>
                <path id="Path_11629" data-name="Path 11629" d="M112.621,291.463a15.293,15.293,0,0,0,3.591-6.918,13.365,13.365,0,0,0,13.528-.006,15.273,15.273,0,0,0,3.625,6.9,13.817,13.817,0,0,1-20.744.027" transform="translate(-86.084 -217.492)" fill="#fff"/>
                <path id="Path_11630" data-name="Path 11630" d="M46.132,154.176a1.987,1.987,0,0,1-2.317-.869c-.7-.977-1.459-1.906-2.143-2.89a5.309,5.309,0,0,1-.935-4.816,3.7,3.7,0,0,1,2.9-2.587l2.49,11.162" transform="translate(-30.957 -109.315)" fill="#fff"/>
                <path id="Path_11631" data-name="Path 11631" d="M251.29,143.278a3.832,3.832,0,0,1,3.032,4.883,9.336,9.336,0,0,1-1.175,2.612c-.589.962-1.351,1.816-2.009,2.738a1.987,1.987,0,0,1-2.31.869l2.461-11.1" transform="translate(-190.196 -109.517)" fill="#fff"/>
              </g>
            </g>
          </g>
          <g id="Ellipse_1732" data-name="Ellipse 1732" fill="none" stroke="#1277f0" stroke-width="3">
            <ellipse cx="51.604" cy="50.867" rx="51.604" ry="50.867" stroke="none"/>
            <ellipse cx="51.604" cy="50.867" rx="53.104" ry="52.367" fill="none"/>
          </g>
        </g>
      </g>
      <g id="Group_18521" data-name="Group 18521" transform="translate(150.303)">
        <circle id="Ellipse_1735" data-name="Ellipse 1735" cx="49.732" cy="49.732" r="49.732" transform="translate(2.757 2.235)" fill="#fff"/>
        <path id="Path_11632" data-name="Path 11632" d="M91.237,19.074a51.316,51.316,0,1,0-7.678,72.162,51.218,51.218,0,0,0,7.678-72.162M5.871,46.48A45.7,45.7,0,0,1,84.286,19.664L13.437,76.886A45.5,45.5,0,0,1,5.871,46.48M91.615,72.9A45.717,45.717,0,0,1,18.347,82.968L89.2,25.746A45.767,45.767,0,0,1,91.615,72.9" transform="translate(-0.001 0)" fill="#f86c6c" stroke="#f86c6c" stroke-width="1"/>
      </g>
    </g>
  </g>
</svg>
