<svg xmlns="http://www.w3.org/2000/svg" xmlns:xlink="http://www.w3.org/1999/xlink" width="182.898" height="180.285" viewBox="0 0 182.898 180.285">
  <defs>
    <clipPath id="clip-path">
      <ellipse id="Ellipse_1731" data-name="Ellipse 1731" cx="91.449" cy="90.142" rx="91.449" ry="90.142" fill="#fff" stroke="#1277f0" stroke-width="4"/>
    </clipPath>
    <clipPath id="clip-path-2">
      <rect id="Rectangle_385" data-name="Rectangle 385" width="121.186" height="163.415" fill="none"/>
    </clipPath>
  </defs>
  <g id="Group_18546" data-name="Group 18546" transform="translate(-125.662 -561.802)">
    <g id="Group_18511" data-name="Group 18511" transform="translate(125.662 561.802)">
      <g id="Group_18509" data-name="Group 18509" transform="translate(0 0)">
        <g id="Group_13729" data-name="Group 13729">
          <ellipse id="Ellipse_1730" data-name="Ellipse 1730" cx="91.449" cy="90.142" rx="91.449" ry="90.142" fill="#fff"/>
          <g id="Mask_Group_18" data-name="Mask Group 18" clip-path="url(#clip-path)">
            <g id="Group_13730" data-name="Group 13730" transform="translate(30.204 22.386)">
              <g id="Group_13729-2" data-name="Group 13729" clip-path="url(#clip-path-2)">
                <path id="Path_11623" data-name="Path 11623" d="M119.269,163.415H0V144.957A8.914,8.914,0,0,0,.358,143.7a21.806,21.806,0,0,1,8.826-15.038,3.262,3.262,0,0,0,1.481-2.975Q10.6,81.538,10.65,37.385a40.55,40.55,0,0,1,.394-6.236A36.324,36.324,0,0,1,47.309.021q13.339-.049,26.678,0a36.4,36.4,0,0,1,36.62,36.92q.026,44.318-.022,88.636a3.412,3.412,0,0,0,1.514,3.127c5.059,3.807,8.229,8.884,8.733,15.227.408,5.131.189,10.309.35,15.464a4.027,4.027,0,0,1-1.914,4.019M26.274,40.193c0,5.093-.047,9.913.027,14.73a22.728,22.728,0,0,0,.574,4.882c1.714,7.192,3.556,14.353,5.29,21.539a24.7,24.7,0,0,0,6.779,12.011c3.2,3.167,6.35,6.382,9.554,9.544,7.149,7.055,17.057,7.067,24.223.021,3.248-3.195,6.443-6.445,9.669-9.662a24.312,24.312,0,0,0,6.677-11.887c.35-1.493.774-2.968,1.13-4.46,1.528-6.39,3.418-12.725,4.436-19.2.725-4.614.279-9.414.34-14.132a7.746,7.746,0,0,0-4.5-7.449Q84.193,32.9,77.817,29.85a2.27,2.27,0,0,0-1.96.308c-2.316,1.847-4.44,3.941-6.8,5.72a52.614,52.614,0,0,1-8.046,5.362c-8.135,4.029-16.62,4.325-25.261,1.658-3.064-.945-6.167-1.765-9.472-2.7M5.538,158.047h110.47c0-3.968.047-7.8-.01-11.636a17.379,17.379,0,0,0-13.058-16.619,36.138,36.138,0,0,0-7.661-.671,23.892,23.892,0,0,1-12.1-3.211,1.985,1.985,0,0,0-2.9.349c-7.235,6.884-15.81,9.4-25.6,7.432a26.633,26.633,0,0,1-13.935-7.648,1.6,1.6,0,0,0-2.372-.3,26.441,26.441,0,0,1-4.309,2.019c-3.722,1.414-7.631,1.312-11.533,1.359-8.34.1-15.819,6.258-16.876,14.514-.6,4.683-.108,9.506-.108,14.414M105.52,51.762c0-5.235.015-10.391,0-15.546a31.127,31.127,0,0,0-31.1-31.1q-13.752-.038-27.5.009a35.165,35.165,0,0,0-4.423.311A31.167,31.167,0,0,0,15.734,35.649c-.031,4.888-.01,9.777-.005,14.665,0,.477.049.954.08,1.518a19.306,19.306,0,0,1,3.8-1.282c1.438-.174,1.612-.843,1.591-2.057-.064-3.569-.031-7.14-.02-10.71.009-2.86,1.35-3.9,4.073-3.125,4.319,1.223,8.621,2.51,12.948,3.7,10.044,2.767,19.1.785,27.108-5.851,3.044-2.521,6.026-5.118,9-7.719a3,3,0,0,1,3.738-.511c4.974,2.553,10.021,4.965,14.98,7.547a11.988,11.988,0,0,1,6.763,9.532c.3,2.493.164,5.037.3,7.554.028.494.315,1.26.677,1.4,1.46.567,3,.938,4.745,1.453M15.848,73.732v50.939c3.425-.245,6.741-.651,10.061-.689,9.79-.112,17.331-6.472,18.8-16.14a3.139,3.139,0,0,0-.743-2.291c-2.281-2.45-4.613-4.865-7.078-7.127A31.7,31.7,0,0,1,26.805,80.551c-.242-1.285-.789-1.7-2.074-1.631a8.286,8.286,0,0,1-7.742-3.794c-.269-.393-.6-.741-1.141-1.394m89.529,50.925V73.768c-.517.623-.854.969-1.124,1.363A8.281,8.281,0,0,1,96.51,78.92c-1.29-.074-1.829.356-2.071,1.636A31.817,31.817,0,0,1,84.36,98.435c-2.462,2.267-4.784,4.69-7.09,7.117a2.885,2.885,0,0,0-.792,1.974,18.208,18.208,0,0,0,14.948,16.036c4.574.684,9.241.746,13.951,1.094M43.6,121.526c9.075,10.533,25.764,9.955,34.079-.045a25.088,25.088,0,0,1-5.955-11.33c-7.511,4.091-14.844,3.971-22.224.01a25.126,25.126,0,0,1-5.9,11.365M24.932,73.7,20.841,55.364a6.07,6.07,0,0,0-4.772,4.25A8.721,8.721,0,0,0,17.6,67.526c1.125,1.617,2.378,3.144,3.521,4.748A3.264,3.264,0,0,0,24.932,73.7m75.439-18.237c-1.367,6.166-2.7,12.2-4.044,18.24a3.264,3.264,0,0,0,3.8-1.427c1.081-1.514,2.332-2.918,3.3-4.5a15.333,15.333,0,0,0,1.93-4.291c.953-3.964-1.395-7.508-4.981-8.023" transform="translate(-0.001 0)" fill="#1277f0"/>
                <path id="Path_11624" data-name="Path 11624" d="M67.847,87.276c3.3.94,6.408,1.759,9.472,2.705,8.641,2.666,17.125,2.371,25.26-1.658a52.625,52.625,0,0,0,8.047-5.362c2.363-1.779,4.487-3.873,6.8-5.721a2.271,2.271,0,0,1,1.96-.308q6.38,3.036,12.66,6.286a7.746,7.746,0,0,1,4.5,7.449c-.061,4.717.386,9.517-.34,14.132-1.017,6.472-2.908,12.806-4.436,19.2-.357,1.491-.781,2.967-1.13,4.46a24.314,24.314,0,0,1-6.677,11.888c-3.227,3.217-6.421,6.467-9.669,9.662-7.166,7.046-17.074,7.034-24.223-.022-3.2-3.162-6.355-6.377-9.555-9.544a24.708,24.708,0,0,1-6.779-12.01c-1.734-7.187-3.577-14.348-5.29-21.54a22.678,22.678,0,0,1-.574-4.882c-.074-4.818-.026-9.637-.026-14.73" transform="translate(-41.573 -47.083)" fill="#fff"/>
                <path id="Path_11625" data-name="Path 11625" d="M14,356.5c0-4.908-.491-9.73.108-14.413,1.056-8.255,8.536-14.414,16.876-14.514,3.9-.047,7.811.056,11.533-1.359a26.443,26.443,0,0,0,4.309-2.019,1.6,1.6,0,0,1,2.373.3,26.632,26.632,0,0,0,13.934,7.647c9.8,1.968,18.37-.548,25.6-7.432a1.986,1.986,0,0,1,2.9-.349,23.885,23.885,0,0,0,12.1,3.211,36.181,36.181,0,0,1,7.661.671,17.379,17.379,0,0,1,13.058,16.619c.057,3.833.01,7.667.01,11.635Z" transform="translate(-8.467 -198.45)" fill="#b2d5ff"/>
                <path id="Path_11626" data-name="Path 11626" d="M130.4,59.834c-1.75-.514-3.285-.886-4.745-1.452-.362-.141-.648-.906-.676-1.4-.141-2.517,0-5.06-.305-7.554a11.987,11.987,0,0,0-6.764-9.532c-4.959-2.582-10.006-4.993-14.98-7.547a3,3,0,0,0-3.738.511c-2.977,2.6-5.958,5.2-9,7.719C82.178,47.216,73.127,49.2,63.083,46.43c-4.328-1.192-8.629-2.479-12.949-3.7-2.722-.77-4.064.264-4.073,3.125-.012,3.57-.044,7.141.02,10.71.022,1.214-.153,1.883-1.591,2.057a19.317,19.317,0,0,0-3.8,1.282c-.031-.563-.079-1.041-.08-1.518,0-4.888-.026-9.777.005-14.665A31.167,31.167,0,0,1,67.368,13.506,35,35,0,0,1,71.79,13.2q13.752-.042,27.5-.009a31.126,31.126,0,0,1,31.1,31.1c.017,5.155,0,10.311,0,15.546" transform="translate(-24.883 -8.072)" fill="#b2d5ff"/>
                <path id="Path_11627" data-name="Path 11627" d="M40.937,190.462c.538.653.872,1,1.141,1.394a8.285,8.285,0,0,0,7.742,3.794c1.286-.074,1.831.346,2.074,1.632A31.705,31.705,0,0,0,61.98,215.155c2.466,2.262,4.8,4.678,7.079,7.127a3.14,3.14,0,0,1,.743,2.291c-1.472,9.668-9.013,16.027-18.8,16.139-3.32.038-6.636.444-10.061.689Z" transform="translate(-25.089 -116.73)" fill="#b2d5ff"/>
                <path id="Path_11628" data-name="Path 11628" d="M226.442,241.444c-4.71-.349-9.377-.411-13.952-1.095a18.208,18.208,0,0,1-14.948-16.036,2.885,2.885,0,0,1,.793-1.974c2.307-2.427,4.629-4.85,7.09-7.117a31.822,31.822,0,0,0,10.08-17.879c.242-1.28.781-1.71,2.071-1.637a8.28,8.28,0,0,0,7.743-3.789c.27-.393.607-.74,1.124-1.363Z" transform="translate(-121.065 -116.787)" fill="#b2d5ff"/>
                <path id="Path_11629" data-name="Path 11629" d="M112.621,295.914a25.121,25.121,0,0,0,5.9-11.365c7.38,3.961,14.714,4.081,22.224-.01a25.094,25.094,0,0,0,5.955,11.33c-8.315,10-25,10.578-34.079.045" transform="translate(-69.023 -174.388)" fill="#fff"/>
                <path id="Path_11630" data-name="Path 11630" d="M49.753,161.353a3.264,3.264,0,0,1-3.807-1.428c-1.143-1.6-2.4-3.131-3.521-4.748a8.722,8.722,0,0,1-1.536-7.912,6.07,6.07,0,0,1,4.772-4.25l4.091,18.339" transform="translate(-24.821 -87.65)" fill="#fff"/>
                <path id="Path_11631" data-name="Path 11631" d="M252.873,143.278c3.587.515,5.934,4.059,4.982,8.023a15.339,15.339,0,0,1-1.93,4.291c-.967,1.581-2.219,2.984-3.3,4.5a3.264,3.264,0,0,1-3.8,1.427c1.34-6.043,2.677-12.074,4.044-18.24" transform="translate(-152.502 -87.812)" fill="#fff"/>
              </g>
            </g>
          </g>
          <g id="Ellipse_1732" data-name="Ellipse 1732" fill="none" stroke="#1277f0" stroke-width="6">
            <ellipse cx="91.449" cy="90.142" rx="91.449" ry="90.142" stroke="none"/>
            <ellipse cx="91.449" cy="90.142" rx="88.449" ry="87.142" fill="none"/>
          </g>
        </g>
      </g>
    </g>
  </g>
</svg>
