<svg id="Group_18550" data-name="Group 18550" xmlns="http://www.w3.org/2000/svg" xmlns:xlink="http://www.w3.org/1999/xlink" width="103.03" height="149.339" viewBox="0 0 103.03 149.339">
  <defs>
    <clipPath id="clip-path">
      <rect id="Rectangle_3844" data-name="Rectangle 3844" width="103.03" height="149.339" fill="none"/>
    </clipPath>
  </defs>
  <g id="Group_18535" data-name="Group 18535" clip-path="url(#clip-path)">
    <path id="Path_16580" data-name="Path 16580" d="M51.59.03Q76.518.03,101.45,0c1.236,0,1.652.266,1.57,1.553-.12,1.922-.021,3.857-.034,5.788-.021,2.9-1.455,4.823-4.222,5.454-.717.163-.931.326-.953,1.077-.532,17.515-8.333,31.461-21.171,42.909a74.264,74.264,0,0,1-8.577,6.492c-8.783,5.8-8.8,16.979-.047,22.754,10.727,7.071,19.343,16.031,24.8,27.8a53.14,53.14,0,0,1,4.99,21.416c.017.811.15,1.133,1.051,1.326a5.05,5.05,0,0,1,4.124,5.2c.026,2.145-.047,4.291.03,6.432.034.957-.309,1.236-1.18,1.107a4.6,4.6,0,0,0-.644,0q-49.7,0-99.4.039c-1.51,0-1.871-.429-1.776-1.836.12-1.759.017-3.536.034-5.3a5.385,5.385,0,0,1,4.166-5.561c.742-.21.987-.459,1.008-1.253.4-15.142,6.483-27.83,16.8-38.669a74.605,74.605,0,0,1,13.01-10.688c8.693-5.75,8.719-16.923.06-22.677a78.517,78.517,0,0,1-10.384-8.084c-9.659-9.092-16.288-19.9-18.691-33.1a44.186,44.186,0,0,1-.79-7.985c0-.858-.167-1.27-1.094-1.523A5.31,5.31,0,0,1,.053,7.209C.032,5.17.087,3.132.032,1.1.01.27.233,0,1.091.021c2.463.06,4.93.021,7.4.021h43.1Z" transform="translate(0)" fill="#1277f0"/>
    <path id="Path_16581" data-name="Path 16581" d="M65.221,153.551c-13.19,0-26.376-.026-39.566.039-1.412.009-1.643-.408-1.583-1.691.631-13.28,5.964-24.484,14.966-34.074A67.229,67.229,0,0,1,51.387,107.6c12.074-7.9,12.062-23.686.009-31.619-11.306-7.44-20-17.056-24.6-30a48.917,48.917,0,0,1-2.72-14.623c-.039-.983.133-1.36,1.257-1.356q39.886.051,79.776,0c1.2,0,1.373.386,1.33,1.446-.532,12.92-5.57,23.926-14.151,33.43A73.835,73.835,0,0,1,78.265,76.59a17.417,17.417,0,0,0-8.127,15.039,17.367,17.367,0,0,0,8.135,15.353c7.355,4.87,13.885,10.577,18.927,17.876a50.857,50.857,0,0,1,9.238,26.959c.064,1.309-.129,1.794-1.648,1.785-13.19-.077-26.376-.043-39.566-.043Z" transform="translate(-13.738 -17.127)" fill="#fefefe"/>
    <path id="Path_16582" data-name="Path 16582" d="M79.3,114.686a32.113,32.113,0,0,0-2.78-6.964,25.651,25.651,0,0,0-8.582-8.715A57.241,57.241,0,0,1,49.511,80.076c-.27-.459-.523-.931-.777-1.4a1.681,1.681,0,0,1-.082-.4h61.406a50.573,50.573,0,0,1-8.371,11.585,55.944,55.944,0,0,1-10.839,9.019,24.718,24.718,0,0,0-11.542,15.812Z" transform="translate(-27.777 -44.685)" fill="#b2d5ff"/>
    <path id="Path_16583" data-name="Path 16583" d="M36.893,271.972c1.137-3.961,3.7-6.694,6.762-9.041,5.029-3.853,10.774-6.269,16.726-8.268a41.561,41.561,0,0,0,5.831-2.21c2.609-1.334,4.939-2.974,6.329-5.883,2.5,4.634,6.861,6.312,11.362,7.788,6.265,2.06,12.34,4.523,17.631,8.577,3.7,2.832,5.827,5.737,6.655,9.032h-71.3Z" transform="translate(-21.063 -140.77)" fill="#b2d5ff"/>
    <path id="Path_16584" data-name="Path 16584" d="M114.438,184.148c0-.266-.009-.532,0-.8.056-1.892.931-2.922,2.454-2.9,1.463.026,2.308,1.021,2.369,2.823.021.639.03,1.283-.009,1.922-.1,1.661-1.013,2.6-2.446,2.579s-2.274-.983-2.364-2.66c-.017-.318,0-.639,0-.961Z" transform="translate(-65.332 -103.021)" fill="#b2d5ff"/>
    <path id="Path_16585" data-name="Path 16585" d="M114.438,214.138c0-.266-.009-.532,0-.8.056-1.892.931-2.922,2.454-2.9,1.463.026,2.308,1.021,2.369,2.823.021.639.03,1.283-.009,1.922-.1,1.661-1.013,2.6-2.446,2.579s-2.274-.983-2.364-2.66c-.017-.318,0-.639,0-.961Z" transform="translate(-65.332 -120.143)" fill="#b2d5ff"/>
  </g>
</svg>
